<svg width="149" height="166" viewBox="0 0 149 166" fill="none" xmlns="http://www.w3.org/2000/svg">
<path fill-rule="evenodd" clip-rule="evenodd" d="M26.9258 70.034C38.2766 69.287 62.952 71.5846 64.3008 86.4363H64.2979C63.4738 106.473 65.5255 127.564 64.3516 147.479C63.3051 165.263 34.9559 166.481 21.8799 164.429C13.6004 163.131 2.0036 159.387 0.0439453 150.1L0 85.4998C0.957507 74.4484 17.9792 70.6239 26.9258 70.034ZM58.9414 0.0740201C70.5649 -0.753053 76.0729 5.61078 85.5205 6.22441C99.5718 7.14038 107.597 -3.40046 122.505 1.25664C147.1 8.94056 117.488 34.0549 111.399 44.5311C109.837 47.2226 110.424 48.2724 112.072 50.5223L112.069 50.5252C128.691 73.2356 150.088 86.5814 148.224 118.713C146.074 155.691 108.999 170.083 76.6572 161.827C74.0871 161.169 70.1445 160.467 70.3311 157.034C70.6364 151.381 77.522 154.33 80.6318 154.887C111.758 160.455 143.113 147.693 140.812 111.604C139.751 94.9208 131.769 85.799 121.838 73.6629C116.469 67.0997 110.531 59.4661 104.804 53.3445C103.354 51.7941 101.801 49.8137 99.4766 49.7781C91.701 50.2998 83.1162 49.12 75.4414 49.7781C73.0877 49.9797 72.5336 50.5493 71.001 52.1561C66.7945 56.5671 63.1957 62.3893 58.9922 66.827C57.8717 68.0097 56.893 69.1301 55.085 68.9969C52.4526 68.8012 50.7986 66.3224 51.8154 63.7967L63.4004 49.8875C64.986 47.3473 64.5797 46.1229 63.0977 43.7664C58.4287 36.3436 43.6514 20.9464 42.999 13.1736C42.2283 3.98099 51.308 0.61652 58.9414 0.0740201ZM56.6289 147.023C53.7209 148.289 50.8777 149.643 47.8008 150.494C36.616 153.586 19.6152 153.231 9.18945 147.77C8.57878 147.45 7.85515 146.463 7.71582 147.459C7.3513 150.05 8.76542 151.414 10.707 152.774C19.8522 159.192 45.3701 159.61 54.1035 152.35C55.8317 150.916 57.0141 149.418 56.6289 147.023ZM86.792 63.4978C93.3254 62.2914 91.1769 70.5731 91.7607 74.3943C93.489 75.6631 95.6882 76.0281 97.6328 77.1189C101.51 79.2948 106.868 84.9662 106.752 89.6648C106.701 91.6063 105.307 93.2661 103.31 93.3758C99.6726 93.5742 99.5336 90.0198 98.0752 87.6424C96.8035 85.5703 94.4104 83.24 91.8877 83.4119L91.6719 103.828C91.9683 104.842 97.2182 107.098 98.5195 107.949C110.223 115.6 109.348 132.625 96.5537 137.887C95.1574 138.462 91.9176 138.753 91.6182 140.362C91.0996 143.14 92.8068 148.416 87.6045 148.235C82.9474 148.075 84.1094 142.381 83.7715 139.298C80.8308 138.512 78.1477 137.644 75.6279 135.88C72.7377 133.855 66.8659 127.583 71.1484 124.34C72.7759 123.109 75.2313 123.21 76.4941 124.935C77.1194 125.786 77.2352 126.832 77.8457 127.733V127.736C79.0196 129.464 81.765 131.223 83.9053 131.015V110.116C82.3312 108.735 80.1194 108.221 78.2666 107.157C70.3428 102.607 66.6279 93.1771 70.5615 84.6189C73.1761 78.9332 78.24 76.9554 83.7627 74.993C84.4946 71.8564 82.3281 64.3221 86.792 63.4978ZM7.72266 136.2C7.72296 136.935 9.33745 138.776 9.95117 139.306C18.5509 146.753 44.8545 146.653 53.7656 139.855C54.4356 139.345 56.6318 137.219 56.6318 136.496V130.717C46.2039 135.553 34.7242 136.955 23.3271 135.417C17.8845 134.682 12.5131 133.099 7.72266 130.419V136.2ZM91.6123 130.567C91.6123 131.397 93.6122 130.819 94.0693 130.65C98.4092 129.046 100.28 122.462 98.3447 118.499C97.1589 116.077 94.1557 114.008 91.6123 113.225V130.567ZM56.6289 114.115C45.0203 119.996 30.4144 121.069 17.792 118.12C14.2585 117.296 11.0003 115.902 7.71582 114.411V119.599C7.71637 120.359 9.45364 122.309 10.085 122.863C18.4833 130.235 44.5843 130.066 53.4658 123.551C54.3639 122.893 56.6284 120.676 56.6289 119.599V114.115ZM56.6318 97.5174C55.5203 98.1399 54.4443 98.8248 53.2734 99.3465C42.314 104.226 24.7559 104.468 13.4941 100.484C11.4784 99.7698 9.6376 98.7234 7.71973 97.8103V103.592C7.72057 104.301 9.91611 106.458 10.5859 106.95C19.7194 113.667 43.1767 113.566 52.6865 107.652C53.7627 106.985 56.6318 104.549 56.6318 103.298V97.5174ZM83.9053 83.285C73.5061 85.034 74.428 98.6195 83.9053 101.071V83.285ZM51.2012 81.1561C44.3622 77.6849 33.6012 77.1511 26.0391 77.741C20.7714 78.1531 14.6911 79.7785 10.2949 82.7488V82.7518C7.01969 84.9631 6.71478 86.8392 9.64941 89.8064C17.6386 97.8873 48.343 98.0504 55.3066 88.6297C58.0932 84.856 54.3168 82.7361 51.2012 81.1561ZM77.0215 12.3494C70.1411 10.132 67.0224 7.03105 58.9414 7.78105C49.7429 8.6348 48.8627 11.4717 53.8398 18.6336C58.0345 24.6721 64.5705 33.9662 69.3848 39.2547C70.6624 40.6569 71.656 41.8635 73.6748 42.0799C82.2894 43.0018 92.4724 41.3801 101.256 42.0916L101.253 42.0887C103.594 42.0826 104.81 40.233 106.12 38.6561C111.142 32.6176 118.212 23.7742 122.383 17.2703C126.002 11.629 124.541 9.21637 118.061 8.06914C108.77 6.424 104.457 11.4186 96.3555 13.1795C90.2636 14.5016 82.974 14.2674 77.0215 12.3494Z" fill="#863087"/>
</svg>
