<svg width="64" height="64" viewBox="0 0 64 64" fill="none" xmlns="http://www.w3.org/2000/svg">
<path d="M18.6621 27.9293C21.8921 27.7167 28.9146 28.3702 29.2988 32.5963H29.2979C29.0633 38.2981 29.6466 44.3011 29.3125 49.9683C29.0144 55.0287 20.9476 55.3753 17.2266 54.7916C14.8704 54.4221 11.5703 53.3564 11.0127 50.7134L11 32.3297C11.2729 29.1852 16.1162 28.0972 18.6621 27.9293ZM27.7734 8.02107C31.081 7.78571 32.6486 9.59632 35.3369 9.77107C39.3355 10.0317 41.6199 7.03269 45.8623 8.35798C52.8606 10.5448 44.4349 17.6912 42.7021 20.6724C42.2576 21.4384 42.4245 21.7372 42.8936 22.3775L42.8926 22.3785C47.6226 28.841 53.7113 32.6392 53.1807 41.7828C52.5688 52.3055 42.0179 56.4007 32.8145 54.0513C32.083 53.8641 30.9615 53.6638 31.0146 52.6871C31.1019 51.079 33.0614 51.9181 33.9463 52.0767C42.804 53.6609 51.7269 50.0292 51.0723 39.7593C50.7702 35.0117 48.4979 32.4161 45.6719 28.9625C44.1442 27.0948 42.455 24.9222 40.8252 23.1802C40.4127 22.739 39.97 22.1757 39.3086 22.1656C37.0959 22.314 34.6527 21.9783 32.4688 22.1656C31.7991 22.223 31.6412 22.3852 31.2051 22.8424C30.0081 24.0976 28.9842 25.7544 27.7881 27.0172C27.4692 27.3538 27.1904 27.6723 26.6758 27.6343C25.9269 27.5785 25.4559 26.8735 25.7451 26.1549L29.042 22.1968C29.4933 21.4739 29.3779 21.1253 28.9561 20.4547C27.6273 18.3423 23.4219 13.9605 23.2363 11.7486C23.0171 9.13281 25.6013 8.17547 27.7734 8.02107ZM27.1152 49.8384C26.2877 50.1987 25.4782 50.5836 24.6025 50.8258C21.4197 51.7055 16.5821 51.6042 13.6152 50.0504C13.4415 49.9592 13.2359 49.679 13.1963 49.9625C13.0927 50.6994 13.4946 51.0871 14.0469 51.4742C16.6494 53.3006 23.9113 53.42 26.3965 51.3541C26.8882 50.9459 27.2247 50.5198 27.1152 49.8384ZM35.6934 26.067C37.5526 25.7236 36.9412 28.0811 37.1074 29.1685C37.5992 29.5295 38.225 29.6335 38.7783 29.9439C39.8816 30.563 41.4056 32.1762 41.373 33.5133C41.3587 34.0658 40.9621 34.5387 40.3936 34.5699C39.3589 34.6261 39.3193 33.6145 38.9043 32.9381C38.5424 32.3484 37.8614 31.686 37.1436 31.7349L37.082 37.5445C37.1667 37.8331 38.6609 38.4753 39.0312 38.7174C42.3612 40.8948 42.1124 45.7396 38.4717 47.2369C38.0743 47.4005 37.1526 47.4829 37.0674 47.941C36.9198 48.7314 37.4051 50.2326 35.9248 50.1812C34.5997 50.1357 34.9301 48.5157 34.834 47.6383C33.9972 47.4147 33.2336 47.1675 32.5166 46.6656C31.6941 46.0894 30.0232 44.3043 31.2422 43.3814C31.7052 43.0315 32.4033 43.0598 32.7627 43.5504C32.9407 43.7925 32.9737 44.0908 33.1475 44.3472V44.3482C33.4816 44.84 34.263 45.3399 34.8721 45.2808V39.3336C34.4242 38.9405 33.7948 38.7946 33.2676 38.4918C31.0127 37.1969 29.9557 34.5132 31.0752 32.0777C31.8193 30.46 33.2596 29.8969 34.8311 29.3384C35.0393 28.4458 34.4232 26.3016 35.6934 26.067ZM13.1973 46.7584C13.1976 46.9677 13.6575 47.4912 13.832 47.6422C16.2792 49.7611 23.7637 49.7325 26.2998 47.7984C26.4905 47.6533 27.1162 47.0482 27.1162 46.8424V45.1978C24.1488 46.5743 20.8819 46.9734 17.6387 46.5357C16.0898 46.3265 14.5605 45.8755 13.1973 45.1129V46.7584ZM37.0654 45.1539C37.0659 45.3897 37.6348 45.2254 37.7646 45.1773C38.9996 44.7209 39.5322 42.8472 38.9814 41.7193C38.644 41.0301 37.7892 40.4411 37.0654 40.2183V45.1539ZM27.1152 40.4732C23.8118 42.1469 19.6555 42.4522 16.0635 41.6129C15.0581 41.3784 14.1308 40.9824 13.1963 40.5582V42.0338C13.1963 42.2497 13.6904 42.8047 13.8701 42.9625C16.2599 45.0604 23.6872 45.0128 26.2148 43.1588C26.4705 42.9715 27.1152 42.34 27.1152 42.0338V40.4732ZM27.1162 35.7496C26.7999 35.9267 26.4933 36.1216 26.1602 36.2701C23.0414 37.6586 18.0447 37.7281 14.8398 36.5943C14.2663 36.391 13.742 36.0934 13.1963 35.8336V37.4791C13.1973 37.6812 13.8222 38.2942 14.0127 38.4342C16.6119 40.3457 23.2869 40.3173 25.9932 38.6343C26.2994 38.4445 27.1162 37.7511 27.1162 37.3951V35.7496ZM34.8721 31.6978C31.9127 32.1955 32.1751 36.0627 34.8721 36.7603V31.6978ZM25.5703 31.0943C23.6242 30.1065 20.5621 29.9548 18.4102 30.1226C16.9111 30.2399 15.1807 30.7022 13.9297 31.5474V31.5484C12.9977 32.1777 12.911 32.7118 13.7461 33.5562C16.02 35.8556 24.7577 35.9021 26.7393 33.2213C27.5322 32.1474 26.4569 31.5439 25.5703 31.0943ZM32.9189 11.5142C30.961 10.8832 30.0731 10.001 27.7734 10.2144C25.1561 10.4574 24.9053 11.2645 26.3213 13.3023C27.5149 15.0206 29.3751 17.6655 30.7451 19.1705C31.1086 19.5694 31.3916 19.9125 31.9658 19.9742C34.4173 20.2365 37.3159 19.7756 39.8154 19.9781L39.8145 19.9771C40.4806 19.9753 40.8265 19.4492 41.1992 19.0006C42.6282 17.2822 44.6402 14.7655 45.8271 12.9146C46.8571 11.3094 46.4414 10.623 44.5977 10.2965C41.954 9.82828 40.7262 11.2494 38.4209 11.7506C36.6874 12.1268 34.6128 12.06 32.9189 11.5142Z" fill="#863087"/>
</svg>
