<svg width="64" height="64" viewBox="0 0 64 64" fill="none" xmlns="http://www.w3.org/2000/svg">
<path d="M35.585 5.11719C38.4721 3.99249 41.9633 4.0659 44.8105 5.29102C45.4753 5.57688 46.0842 5.92012 46.3936 6.36914C46.5462 6.59085 46.625 6.83759 46.6025 7.11816C46.5801 7.3978 46.4559 7.71812 46.1904 8.08594L39.6787 12.3652L39.623 12.4014L42.1523 17.5352L42.1885 17.6094L42.2588 17.5654L49.7676 12.9287C50.2954 12.8271 50.6636 12.883 50.9199 13.0332C51.1773 13.1843 51.3352 13.4391 51.4258 13.7607C51.5165 14.0831 51.5376 14.4665 51.5254 14.8643C51.5132 15.2616 51.4687 15.6685 51.4297 16.0361C50.7694 22.2463 46.3533 26.8774 39.9795 27.0176L39.9355 27.0186L39.915 27.0576L36.6133 33.2285L36.5879 33.2764L36.626 33.3154L38.0293 34.7715L38.127 34.873L38.1562 34.7354C38.2338 34.3729 38.2723 34.0021 38.3086 33.6357C38.3451 33.2682 38.3793 32.9047 38.4482 32.5508C38.8318 30.5843 40.3559 29.6944 41.8633 29.7637C43.326 29.8312 44.7712 30.8012 45.1445 32.5762L45.1768 32.751L46.7002 44.5088L46.7031 44.5322L46.7188 44.5498C47.1429 45.0149 47.6786 45.4861 48.1982 45.9697C48.7201 46.4554 49.2282 46.9555 49.6074 47.4824C49.9863 48.009 50.2323 48.5572 50.2393 49.1406C50.2461 49.7209 50.0162 50.348 49.4209 51.0352C47.6889 52.3718 46.0214 53.7968 44.3555 55.2188C42.6872 56.6427 41.02 58.0646 39.29 59.3984C38.8515 59.7367 38.4932 59.9954 38.1006 60.1572C37.7106 60.3179 37.2816 60.3855 36.7021 60.334C35.7958 60.2531 34.9571 59.5787 34.1748 58.7578C33.7851 58.3489 33.4134 57.9082 33.0566 57.4932C32.7009 57.0794 32.3589 56.6901 32.0322 56.3896L32.0127 56.3721L31.9854 56.3701C30.9677 56.3119 30.0702 56.3788 29.082 56.1689C27.3655 55.8043 25.881 54.9051 24.6123 53.7119L24.54 53.6445L24.4941 53.7314C24.0717 54.5335 23.7294 55.3437 23.2764 56.0742C22.8261 56.8 22.2728 57.4344 21.4434 57.8701C17.275 60.0596 12.6087 56.0214 14.4854 51.6494L14.4844 51.6484L17.3223 46.1064L17.3467 46.0596L17.3105 46.0215L12.2842 40.5732C12.1561 40.3991 12.0147 40.2412 11.8838 40.085C11.7516 39.9272 11.6266 39.7682 11.5244 39.585C10.2739 37.3389 11.7382 34.5829 14.2969 34.4561L14.376 34.4521L14.3672 34.373C14.1282 32.1117 15.9459 30.2063 18.2178 30.3896L18.2969 30.3955L18.2988 30.3154C18.3328 28.2512 20.1662 26.5934 22.2188 26.7686L22.2861 26.7734L22.2988 26.708C22.8617 23.9036 26.0159 22.6931 28.2383 24.6113C28.3036 24.6679 28.3698 24.7221 28.4238 24.7832C28.4771 24.8436 28.5122 24.9044 28.5215 24.9697L28.5352 25.0664L28.625 25.0283L28.79 24.958L28.8154 24.9473L28.8271 24.9229L30.4912 21.7002L30.5088 21.667L30.4922 21.6338C30.3402 21.3141 30.1608 21.0083 29.9873 20.7051C29.8132 20.4008 29.6446 20.098 29.5117 19.7783C27.19 14.1949 29.9313 7.3193 35.585 5.11719ZM45.7236 46.9209H45.6973L45.6768 46.9365L34.542 55.4678L34.5049 55.4961L34.5146 55.542L34.5498 55.7148L34.5537 55.7363L34.5693 55.752L36.7041 57.9561L36.709 57.9619L36.7148 57.9658C36.9257 58.1133 37.2011 58.0564 37.3809 57.9248L37.3838 57.9219L47.7207 49.3486L47.7285 49.3428L47.7344 49.334C47.7819 49.2667 47.8475 49.1688 47.8477 49.0557C47.8477 49.0212 47.837 48.9862 47.8232 48.9541C47.8092 48.9213 47.7891 48.8865 47.7656 48.8506C47.7186 48.7786 47.6531 48.6958 47.5752 48.6074C47.4191 48.4304 47.2092 48.2222 46.9932 48.0146C46.7746 47.8047 46.5548 47.601 46.3672 47.4199C46.1797 47.239 46.0373 47.0932 45.9775 47.0088L45.916 47.0518L45.9785 47.0078L45.9697 46.999L45.915 46.9541C45.8953 46.9411 45.8739 46.93 45.8506 46.9229C45.8095 46.9104 45.767 46.912 45.7236 46.9209ZM19.0723 47.9043L16.4922 52.915L16.4873 52.9248L16.4854 52.9346C15.9061 55.9282 19.7633 57.3954 21.3496 54.7314L21.5449 54.3838C21.7327 54.03 21.902 53.659 22.0723 53.292C22.3001 52.8009 22.5307 52.3148 22.8125 51.874L22.8438 51.8252L22.8037 51.7832L19.1934 47.8877L19.1211 47.8086L19.0723 47.9043ZM25.6514 26.0508C25.4565 26.0794 25.2492 26.1809 25.0752 26.3164C24.9015 26.4518 24.7525 26.6275 24.6787 26.8115C24.5466 27.1425 24.5553 27.4387 24.6494 27.7119C24.7426 27.9822 24.9181 28.2284 25.1133 28.4639C25.8693 29.3753 26.7232 30.248 27.5781 31.1172C28.2198 31.7695 28.8619 32.4201 29.4668 33.085L30.0586 33.7559C30.4109 34.2252 30.4123 34.7461 30.1895 35.123C29.9662 35.5002 29.5116 35.7439 28.9277 35.6445C28.8069 35.6239 28.6689 35.5593 28.5215 35.4609C28.3748 35.3631 28.2233 35.2353 28.0742 35.0967C27.7742 34.8177 27.4962 34.5036 27.291 34.2949C26.7387 33.7335 26.2087 33.1461 25.6797 32.5557C25.1511 31.9656 24.6226 31.3725 24.0742 30.8027C23.874 30.5944 23.5174 30.2019 23.1484 29.8506C22.9637 29.6747 22.7735 29.5066 22.5967 29.376C22.4225 29.2474 22.2523 29.1482 22.1074 29.1182C21.5626 29.0062 21.0966 29.2222 20.8301 29.5938C20.5644 29.9645 20.4984 30.4867 20.7402 30.9814C20.7903 31.0836 20.8878 31.2179 21.0059 31.3633C21.125 31.51 21.2694 31.6735 21.418 31.8359C21.5668 31.9986 21.7212 32.161 21.8584 32.3057C21.996 32.4507 22.1163 32.5779 22.2002 32.6699C22.8413 33.3724 23.5063 34.055 24.1689 34.7373C24.8298 35.4178 25.4898 36.0984 26.123 36.8008C26.3431 37.102 26.3955 37.4917 26.3105 37.8555C26.2255 38.2192 26.0046 38.5504 25.6895 38.7354C25.3859 38.9135 25.1069 38.9519 24.8467 38.9023C24.5839 38.8521 24.3326 38.711 24.0898 38.5205C23.8472 38.33 23.617 38.0935 23.3936 37.8574C23.2272 37.6817 23.0634 37.5054 22.9033 37.3516L22.7441 37.2061C22.0912 36.616 21.452 35.8552 20.8027 35.1025C20.1551 34.3518 19.4976 33.6089 18.8135 33.0664C18.4951 32.8139 18.1289 32.6695 17.7764 32.6855C17.4207 32.702 17.0879 32.8816 16.8428 33.2578C16.602 33.6281 16.5867 33.9771 16.6943 34.3008C16.8003 34.6192 17.0238 34.9109 17.252 35.1758C17.9544 35.9916 18.7064 36.7713 19.46 37.5469C20.2135 38.3225 20.9685 39.0951 21.6797 39.8975C22.0956 40.3873 22.0567 41.011 21.7559 41.458C21.4554 41.904 20.8996 42.1662 20.2832 41.9355C20.2004 41.9046 20.0777 41.8213 19.9307 41.6992C19.7857 41.5789 19.6237 41.4266 19.4619 41.2676C19.1378 40.949 18.8203 40.6064 18.6494 40.4297C18.2887 40.0564 17.5919 39.2343 16.8789 38.458C16.5241 38.0718 16.1669 37.6977 15.8496 37.4023C15.691 37.2547 15.541 37.1261 15.4062 37.0244C15.2724 36.9235 15.1488 36.8459 15.043 36.8057C14.4938 36.5975 13.9985 36.7441 13.7109 37.0811C13.4242 37.4175 13.3535 37.9325 13.627 38.4385L13.6318 38.4463L13.6387 38.4531L26.5049 52.2256L26.5088 52.2295C28.4427 53.9808 31.5186 54.7149 33.7832 53.1094L33.7861 53.1074L44.2891 44.9678L44.3232 44.9414L44.3174 44.8984L42.8057 33.1455C42.7509 32.5579 42.3051 32.2061 41.8408 32.1484C41.3738 32.0907 40.8785 32.3298 40.7373 32.9209C40.6341 33.3546 40.5907 33.8915 40.542 34.4414C40.493 34.9943 40.438 35.5637 40.3164 36.0742C40.1947 36.5851 40.0077 37.0285 39.6982 37.335C39.3915 37.6384 38.9554 37.8158 38.3213 37.7812L38.0654 37.7568C37.8691 37.7307 37.6371 37.6196 37.3857 37.4492C37.1358 37.2798 36.8729 37.0564 36.6152 36.8145C36.0982 36.329 35.6118 35.7789 35.2891 35.4473C33.8637 33.9833 32.4714 32.4845 31.0771 30.9863C30.0315 29.8628 28.9847 28.7394 27.9219 27.6318L26.8535 26.5303L26.8477 26.5254L26.5928 26.3311C26.3202 26.1448 25.9982 26.0002 25.6514 26.0508ZM43.0898 7.13281C41.595 6.58254 39.3273 6.55778 37.7852 6.87695C32.3552 8.00284 29.4193 14.356 31.9053 19.2773C32.0208 19.5061 32.1782 19.7434 32.3379 19.9834C32.4987 20.225 32.6625 20.4702 32.7979 20.7178C33.069 21.2137 33.2128 21.7001 32.9922 22.1699L30.5713 26.9102L30.5469 26.957L30.583 26.9961L34.7432 31.3818L34.7598 31.3994L34.7832 31.4033C34.8183 31.4104 34.8522 31.4149 34.8809 31.4102C34.8964 31.4075 34.914 31.4011 34.9297 31.3896C34.9458 31.3777 34.9566 31.3627 34.9629 31.3486C34.9686 31.3357 34.9704 31.3223 34.9717 31.3145C34.9726 31.3088 34.9742 31.2976 34.9746 31.2949C34.9757 31.287 34.9769 31.2837 34.9775 31.2822C35.2539 30.8131 35.5052 30.2954 35.75 29.7754C35.9952 29.2544 36.2342 28.7311 36.4883 28.2461C36.6037 28.0257 36.7329 27.7665 36.8701 27.4922C37.0075 27.2176 37.1532 26.9264 37.3018 26.6396C37.5995 26.0649 37.9079 25.5116 38.1826 25.1436C38.4732 24.7545 38.8474 24.6377 39.2695 24.6123C39.4824 24.5996 39.7058 24.6097 39.9355 24.6201C40.1636 24.6305 40.3989 24.6413 40.6299 24.626C44.9284 24.3409 48.2907 21.0559 48.916 16.8496C48.9214 16.8143 48.9509 16.6661 48.9619 16.5342C48.9674 16.4684 48.9691 16.3983 48.959 16.3428C48.954 16.3154 48.9443 16.283 48.9248 16.2568C48.9025 16.2271 48.8672 16.2059 48.8232 16.208L48.8018 16.209L48.7842 16.2217C48.0149 16.7611 47.225 17.2777 46.4287 17.7812L45.6299 18.2812C45.2462 18.5193 44.5697 18.9783 43.8818 19.3945C43.5399 19.6014 43.1989 19.7946 42.8984 19.9404C42.5954 20.0875 42.3416 20.1826 42.1699 20.1982C41.6462 20.2455 41.286 20.1319 40.998 19.9121C40.7059 19.6891 40.4805 19.3513 40.2383 18.9336C39.6745 17.9606 39.176 16.9286 38.6787 15.8916C38.1824 14.8566 37.6873 13.8161 37.1309 12.8291C36.8995 12.1907 37.0298 11.5621 37.5186 11.0859L43.2754 7.39746L43.3145 7.37207L43.3096 7.32715C43.3061 7.2905 43.2953 7.25769 43.2754 7.23047C43.2557 7.20362 43.2305 7.18589 43.207 7.17383C43.1842 7.16216 43.1599 7.15425 43.1406 7.14844C43.1195 7.14207 43.1049 7.13832 43.0898 7.13281Z" fill="#863087"/>
</svg>
