<svg width="134" height="185" viewBox="0 0 134 185" fill="none" xmlns="http://www.w3.org/2000/svg">
<path d="M80.5332 2.62793C90.0606 -1.08337 101.573 -0.838408 110.967 3.2041C115.329 5.0798 119.191 7.79539 115.571 12.7734L94.1787 26.8301L102.377 43.4668L127.039 28.2393C134.182 26.8392 133.327 33.8711 132.815 38.6826V38.6846C130.64 59.1551 116.073 74.4499 95.0361 74.9121L84.2109 95.1426L88.8135 99.916C89.3157 97.5692 89.3117 95.1069 89.7695 92.7578C92.3364 79.599 110.22 80.8011 112.313 93.4199L117.31 131.98C122.837 138.041 134.132 144.413 126.156 153.592C114.795 162.357 104.277 172.271 92.9209 181.027C90.0451 183.245 88.1309 184.485 84.2617 184.141C78.1192 183.594 73.0434 175.044 68.8076 171.148C65.5096 170.96 62.5137 171.178 59.249 170.484C53.5663 169.278 48.6613 166.301 44.4766 162.365C41.7341 167.572 39.9138 173.127 34.3711 176.038C20.519 183.316 4.95996 169.897 11.2158 155.327L20.5254 137.139L4.0293 119.255C3.20037 118.128 2.21289 117.231 1.51953 115.986C-2.66515 108.47 2.23098 99.2313 10.8115 98.8066C10.0117 91.2418 16.095 84.8571 23.7021 85.4727C23.8155 78.5611 29.9486 73.0119 36.8223 73.6006C38.7024 64.2332 49.2569 60.1685 56.6953 66.5889C57.1086 66.9466 57.6269 67.351 57.707 67.9131L58.249 67.6846L63.7051 57.1172C62.7183 55.0415 61.3669 53.1496 60.4824 51.0205C52.8199 32.5924 61.8607 9.89958 80.5332 2.62793ZM114.496 140.351C114.314 140.166 114.122 140.097 113.864 140.166L113.862 140.168L77.3525 168.14L77.4678 168.706L84.4688 175.934C85.0466 176.338 85.8267 176.195 86.3623 175.802L120.256 147.693C120.416 147.467 120.581 147.204 120.581 146.92C120.581 145.858 115.343 141.549 114.496 140.351ZM18.2412 159.686C16.3946 169.222 28.6735 173.913 33.7383 165.403C35.4939 162.452 36.6672 158.952 38.5361 156.029L26.6992 143.257L18.2412 159.686ZM51.8174 73.2402C50.7818 72.3802 49.4899 71.5338 48.0898 71.7383C46.9165 71.9096 45.535 72.9764 45.0928 74.083C44.2705 76.1409 45.2054 77.7166 46.4766 79.25C51.4192 85.2083 57.6424 90.6641 62.6895 96.5957C65.1318 99.8292 62.776 103.879 58.7559 103.194C56.9735 102.892 54.5708 100.038 53.2529 98.6982C49.6215 95.0068 46.2943 90.9733 42.7051 87.2441C41.3783 85.864 38.063 82.1368 36.3828 81.79C33.0025 81.0944 30.6648 84.468 32.1738 87.5527C32.7762 88.784 35.8119 91.8137 36.9209 93.0293C41.1189 97.6295 45.6285 101.968 49.7998 106.597C51.3419 108.708 50.5038 112.004 48.3037 113.295C44.1236 115.751 41.0767 110.593 38.3633 108.255C34.0496 104.359 29.9263 98.2132 25.4814 94.6885C23.4591 93.0842 20.9078 92.9111 19.3789 95.2578C17.8833 97.5558 19.2058 99.5185 20.6992 101.252C25.2951 106.59 30.5448 111.457 35.2207 116.733C38.1114 120.138 34.6531 125.411 30.3662 123.807C29.1081 123.337 26.0289 119.955 24.9199 118.809C22.5553 116.362 15.7015 107.941 13.1855 106.985C9.75871 105.685 7.14018 108.832 8.84668 111.99L51.0332 157.143C57.3203 162.836 67.2737 165.188 74.5742 160.01L109.009 133.323L104.053 94.7891C103.726 91.1845 98.6172 90.4754 97.7568 94.0752C96.3789 99.8579 98.2498 111.381 88.7246 110.119H88.7227C85.918 109.748 81.5659 104.626 79.4746 102.477C70.1228 92.8714 61.2115 82.8121 51.8174 73.2402ZM105.142 9.69727C100.295 7.91272 92.9115 7.82809 87.8867 8.86816C70.2455 12.524 60.698 33.177 68.7783 49.1738C70.2629 52.1141 73.9012 55.5727 72.3389 58.8818L64.4004 74.4248L78.042 88.8037C78.4839 88.8925 78.3133 88.7037 78.4199 88.5215C80.22 85.4658 81.6928 81.7696 83.3662 78.5762C84.8752 75.6937 87.1114 70.8201 88.9404 68.3711C90.965 65.66 94.1784 66.7758 97.1475 66.5781C111.12 65.6514 122.054 54.9743 124.088 41.291C124.128 41.0235 124.461 39.451 124.041 39.4707C120.672 41.8331 117.185 44.0563 113.689 46.2275C111.22 47.7588 104.681 52.3276 102.234 52.5498C98.6945 52.8697 97.2569 51.0231 95.668 48.2832C91.9588 41.8827 89.1154 34.7176 85.4707 28.2549C84.664 26.0569 85.1136 23.8784 86.8115 22.2383L105.706 10.1289C105.675 9.79777 105.377 9.78394 105.142 9.69727Z" fill="#863087"/>
</svg>
