<svg width="56" height="40" viewBox="0 0 56 40" fill="none" xmlns="http://www.w3.org/2000/svg">
<path d="M31.3555 0C32.498 0.00346129 33.617 0.326613 34.585 0.933594C35.5529 1.5406 36.3314 2.40759 36.832 3.43457L38.3438 6.55176C38.4053 6.51308 38.4712 6.47975 38.5322 6.44043L40.0469 5.46289C40.2074 5.35914 40.3948 5.30397 40.5859 5.30371C40.7772 5.30352 40.9651 5.35841 41.126 5.46191C45.0798 8.32999 49.8352 9.88261 54.7197 9.90039C54.9826 9.90174 55.2344 10.007 55.4199 10.1934C55.6054 10.3798 55.7099 10.6325 55.71 10.8955V25.6221C55.7099 30.188 52.7407 34.414 47.9609 36.6514L41.0078 39.9062C40.876 39.9683 40.7316 40 40.5859 40C40.4405 39.9999 40.2967 39.9682 40.165 39.9062L33.2129 36.6514C30.0271 35.2515 27.5082 32.6702 26.1865 29.4512H13.6475V30.9277C13.6451 31.7467 13.3183 32.5312 12.7383 33.1094C12.158 33.6876 11.3719 34.0123 10.5527 34.0117H7.76367C6.9446 34.0121 6.15821 33.6876 5.57812 33.1094C4.99826 32.5312 4.67125 31.7466 4.66895 30.9277V27.8555C3.86603 27.2008 3.21846 26.376 2.77344 25.4404C2.32836 24.5047 2.0969 23.4815 2.0957 22.4453V16.5986C2.09796 15.9931 2.23395 15.3954 2.49414 14.8486C2.75451 14.3016 3.13279 13.8183 3.60156 13.4346H2.42871C1.78484 13.4339 1.16721 13.1779 0.711914 12.7227C0.256684 12.2673 0.000566273 11.6497 0 11.0059V9.93262C0.000571556 9.28874 0.256667 8.67115 0.711914 8.21582C1.16721 7.76054 1.78484 7.50454 2.42871 7.50391H4.22168C4.72364 7.51077 5.21775 7.62949 5.66797 7.85156C6.11831 8.07371 6.51324 8.39383 6.82422 8.78809L9.42188 3.43262C9.92222 2.40592 10.7003 1.53932 11.668 0.932617C12.6356 0.325988 13.7544 0.00309352 14.8965 0H31.3555ZM39.6113 8.11133C35.9584 10.4074 31.7656 11.7024 27.4541 11.8662V25.6221C27.4541 29.4079 29.9832 32.9445 34.0557 34.8506L40.5859 37.9062L47.1182 34.8506C51.1905 32.9436 53.7197 29.4069 53.7197 25.6221V11.8662C49.4082 11.7029 45.2152 10.4078 41.5625 8.11133L40.5859 7.48242L39.6113 8.11133ZM6.65918 30.9277C6.66097 31.219 6.77754 31.498 6.98438 31.7031C7.19144 31.9084 7.47213 32.0233 7.76367 32.0225H10.5527C10.8443 32.0234 11.1248 31.9083 11.332 31.7031C11.539 31.498 11.6562 31.2191 11.6582 30.9277V29.4512H9.10156C8.26702 29.4477 7.43962 29.2946 6.65918 28.999V30.9277ZM49.502 15.2168C49.7623 15.2241 50.0096 15.3331 50.1904 15.5205C50.3712 15.708 50.4708 15.9593 50.4688 16.2197C50.4666 16.48 50.3624 16.7296 50.1787 16.9141L37.2871 28.207C37.1681 28.3217 37.0225 28.4049 36.8633 28.4492C36.704 28.4935 36.5362 28.4977 36.375 28.4609C36.2138 28.4241 36.0637 28.3474 35.9395 28.2383C35.8154 28.1292 35.7204 27.9909 35.6631 27.8359L31.6211 21.2793C31.5358 21.0333 31.55 20.7638 31.6611 20.5283C31.7724 20.2929 31.9716 20.1099 32.2158 20.0195C32.4602 19.9292 32.731 19.9383 32.9688 20.0449C33.2064 20.1516 33.3931 20.3473 33.4883 20.5898L37.0029 25.7168L48.7979 15.4814C48.9888 15.3045 49.2417 15.2095 49.502 15.2168ZM6.22949 14.4551C5.6611 14.4557 5.11581 14.6811 4.71387 15.083C4.31196 15.4849 4.08565 16.0303 4.08496 16.5986V22.4453C4.0901 23.7741 4.62104 25.0466 5.56055 25.9863C6.50006 26.926 7.7728 27.4565 9.10156 27.4619H25.6309C25.5197 26.8448 25.4637 26.2189 25.4639 25.5918H17.4287C17.165 25.5918 16.9121 25.4872 16.7256 25.3008C16.539 25.1142 16.4336 24.8605 16.4336 24.5967C16.4337 24.333 16.5391 24.08 16.7256 23.8936C16.9121 23.7071 17.165 23.6026 17.4287 23.6025H25.4639V22.5039H17.4287C17.1683 22.4989 16.9198 22.392 16.7373 22.2061C16.5548 22.02 16.4531 21.7694 16.4531 21.5088C16.4531 21.2482 16.5548 20.9976 16.7373 20.8115C16.9198 20.6256 17.1682 20.5187 17.4287 20.5137H25.4639V14.4551H6.22949ZM7.91699 16.1348C8.26491 16.0742 8.62248 16.0972 8.95996 16.2012L12.3672 17.2344C13.1684 17.4735 13.871 17.9652 14.3691 18.6367C14.8674 19.3085 15.1347 20.1245 15.1309 20.9609C15.1309 21.0915 15.1046 21.2212 15.0547 21.3418C15.0048 21.4622 14.932 21.5719 14.8398 21.6641C14.7475 21.7565 14.6373 21.8299 14.5166 21.8799C14.3959 21.9298 14.2664 21.9552 14.1357 21.9551H8.31738C7.71486 21.9542 7.13702 21.7151 6.71094 21.2891C6.2849 20.863 6.04483 20.2851 6.04395 19.6826C6.02077 18.6047 5.92126 17.2246 6.95703 16.5498C7.23955 16.3377 7.56898 16.1954 7.91699 16.1348ZM8.30273 18.0938C8.13451 18.1179 8.05947 18.1704 8.03418 18.3652V19.6816C8.03427 19.7568 8.06401 19.8296 8.11719 19.8828C8.1703 19.9359 8.24232 19.9657 8.31738 19.9658H12.8643C12.6205 19.5669 12.238 19.2716 11.79 19.1377L8.38281 18.1055C8.35699 18.0976 8.32973 18.0936 8.30273 18.0938ZM14.8965 1.98926C14.1279 1.99124 13.3748 2.209 12.7236 2.61719C12.0725 3.02537 11.5486 3.60803 11.2119 4.29883L7.25195 12.4648H25.4639V10.8955C25.4639 10.6325 25.5684 10.3798 25.7539 10.1934C25.9394 10.0071 26.1912 9.90174 26.4541 9.90039C29.9736 9.88807 33.4442 9.07463 36.6025 7.52148L35.041 4.30078C34.7041 3.60955 34.1798 3.02667 33.5283 2.61816C32.8769 2.20978 32.1243 1.99148 31.3555 1.98926H14.8965ZM5.12305 9.88281C4.6487 9.25853 3.09061 9.55795 2.42871 9.49316C1.76199 9.50471 2.0472 10.5083 1.99023 11.0059C1.99044 11.1223 2.03683 11.2341 2.11914 11.3164C2.20136 11.3985 2.31254 11.445 2.42871 11.4453H5.53613L5.89551 10.7031L5.12305 9.88281Z" fill="#863087"/>
</svg>
