<svg width="64" height="64" viewBox="0 0 64 64" fill="none" xmlns="http://www.w3.org/2000/svg">
<path d="M34.9775 12.0469C36.0599 12.0502 37.1214 12.3372 38.0557 12.877L38.2412 12.9883V12.9893C39.2189 13.6009 40.005 14.4734 40.5107 15.5078V15.5088L41.8945 18.3525L43.3672 17.4053C43.5564 17.2835 43.7767 17.2181 44.002 17.2178C44.171 17.2176 44.3378 17.2539 44.4902 17.3232L44.6377 17.4043L44.6465 17.4102L45.0078 17.667C48.7666 20.2751 53.237 21.6836 57.8232 21.7002L57.9385 21.707C58.2056 21.7347 58.4569 21.8531 58.6484 22.0449C58.8399 22.2369 58.9579 22.4881 58.9844 22.7549L58.9902 22.8701V37.2285C58.9902 41.7718 56.0291 45.9551 51.2988 48.1631L44.5 51.3359C44.3832 51.3908 44.2585 51.4264 44.1309 51.4404L44.002 51.4473C43.8734 51.4472 43.7454 51.4261 43.624 51.3848L43.5049 51.3359L36.707 48.1631V48.1621C33.5884 46.7941 31.1149 44.2895 29.79 41.1631H17.8633V42.4023C17.8608 43.2538 17.5187 44.0699 16.9141 44.6709C16.347 45.2341 15.5914 45.5656 14.7959 45.6045L14.6357 45.6084H11.9082C11.0545 45.6087 10.2346 45.2709 9.62988 44.6699C9.02554 44.0689 8.68506 43.2533 8.68262 42.4023V39.4971C7.90926 38.8503 7.28255 38.0463 6.84863 37.1367C6.4008 36.1978 6.16722 35.1707 6.16602 34.1309V28.4297C6.16838 27.8098 6.30795 27.1975 6.5752 26.6377C6.76743 26.2351 7.02311 25.8672 7.33008 25.5459H6.69238C6.00964 25.5453 5.35482 25.2743 4.87207 24.793C4.3894 24.3116 4.11779 23.6584 4.11719 22.9775V21.9316C4.11779 21.2508 4.38938 20.5976 4.87207 20.1162C5.35482 19.6349 6.00964 19.3639 6.69238 19.3633H8.44727C8.96791 19.3704 9.48207 19.4929 9.94922 19.7227C10.3223 19.9063 10.6579 20.1558 10.9424 20.4561L13.3506 15.5059C13.8562 14.4716 14.6415 13.5986 15.6191 12.9873C16.5969 12.3761 17.7277 12.0501 18.8818 12.0469H34.9775ZM43.9004 17.4248C43.9209 17.4235 43.9413 17.4209 43.9619 17.4209C44.1482 17.4207 44.3306 17.4745 44.4873 17.5752C48.3423 20.3717 52.9797 21.8859 57.7422 21.9033C57.9984 21.9047 58.244 22.0069 58.4248 22.1885C58.6057 22.3702 58.707 22.6166 58.707 22.873V37.2314C58.707 41.6833 55.8126 45.804 51.1523 47.9854L44.373 51.1582C44.2785 51.2027 44.1775 51.2301 44.0742 51.2422C44.192 51.2335 44.3079 51.2056 44.415 51.1553L51.2139 47.9824C55.8873 45.801 58.79 41.6803 58.79 37.2285V22.8701C58.79 22.6137 58.6882 22.3673 58.5068 22.1855C58.3255 22.0039 58.0793 21.9018 57.8223 21.9004C53.0461 21.8831 48.3954 20.3688 44.5293 17.5723C44.3721 17.4715 44.1888 17.4178 44.002 17.418C43.9679 17.418 43.9341 17.4212 43.9004 17.4248ZM31.1582 23.8193V37.2314C31.1582 40.9225 33.6243 44.3701 37.5947 46.2285L43.9619 49.209L43.9844 49.1973L37.6172 46.2256C33.6353 44.3672 31.1621 40.9197 31.1621 37.2285V23.8184C31.1609 23.8184 31.1595 23.8193 31.1582 23.8193ZM43.1572 20.3232L43.1553 20.3242C39.6084 22.5472 35.545 23.8141 31.3623 24.0059V37.2285C31.3623 40.8256 33.7745 44.2118 37.7021 46.0449L44.002 48.9854L50.3037 46.0449C54.2315 44.2108 56.6445 40.8246 56.6445 37.2285V24.0059C52.4615 23.8146 48.3974 22.5478 44.8506 20.3242L44.8486 20.3232L44.002 19.7793L43.1572 20.3232ZM7.83594 25.3486C7.37919 25.7223 7.00982 26.1917 6.75586 26.7236C6.50133 27.2569 6.36843 27.8401 6.36621 28.4307V34.1309C6.36738 35.141 6.59422 36.1386 7.0293 37.0508C7.46449 37.9631 8.09852 38.7679 8.88379 39.4062V42.4014C8.88598 43.1997 9.20461 43.9646 9.77148 44.5283C10.279 45.0328 10.9483 45.3369 11.6572 45.3955C10.9697 45.3264 10.3227 45.0233 9.8291 44.5312C9.26387 43.9675 8.94554 43.2026 8.94336 42.4043V39.4092C8.16039 38.7708 7.52866 37.966 7.09473 37.0537C6.66091 36.1415 6.43476 35.1439 6.43359 34.1338V28.4336C6.43581 27.843 6.56845 27.2598 6.82227 26.7266C7.07612 26.1933 7.44536 25.7227 7.90234 25.3486H7.83594ZM15.7168 42.4014C15.7149 42.6855 15.5999 42.9572 15.3975 43.1572C15.1949 43.3572 14.9207 43.4695 14.6357 43.4688H11.9082C11.8883 43.4688 11.8684 43.4669 11.8486 43.4658C11.8855 43.4696 11.9226 43.4718 11.96 43.4717H14.6797C14.9638 43.4725 15.2366 43.3601 15.4385 43.1602C15.6404 42.9601 15.7549 42.6886 15.7568 42.4043V40.9658H15.7168V42.4014ZM11.0293 42.4004L11.0342 42.4863C11.0552 42.6857 11.1442 42.8732 11.2881 43.0156C11.4527 43.1781 11.6758 43.2691 11.9072 43.2686H14.6367C14.8392 43.269 15.0352 43.1997 15.1914 43.0732L15.2559 43.0146C15.4203 42.8521 15.5137 42.632 15.5156 42.4014V41.1631H13.2148C12.4713 41.1599 11.7337 41.0383 11.0293 40.8047V42.4004ZM10.8828 40.54C11.5385 40.7814 12.2266 40.9222 12.9238 40.9551C12.2261 40.9171 11.5375 40.7724 10.8828 40.5244V40.54ZM52.7227 26.8779C53.0292 26.8865 53.3208 27.0149 53.5342 27.2354C53.7477 27.456 53.8657 27.7516 53.8633 28.0576C53.8607 28.3634 53.738 28.656 53.5215 28.873L53.5117 28.8828L40.9062 39.8945L40.9053 39.8936C40.7661 40.0252 40.5975 40.1217 40.4131 40.1729C40.2251 40.225 40.0264 40.2296 39.8369 40.1865C39.6474 40.1432 39.4708 40.053 39.3242 39.9248C39.1837 39.8018 39.0761 39.6465 39.0078 39.4736L35.0625 33.0938L35.0508 33.0752L35.0439 33.0547C34.9434 32.7656 34.9597 32.4479 35.0908 32.1709C35.2222 31.894 35.4583 31.6794 35.7461 31.5732C36.0344 31.4672 36.3538 31.4783 36.6338 31.6035C36.905 31.725 37.1193 31.9449 37.2344 32.2178L40.5332 37.0176L51.8975 27.1855C52.1218 26.9807 52.418 26.8696 52.7227 26.8779ZM52.7168 27.0781C52.6798 27.0771 52.643 27.0779 52.6064 27.0811C52.6214 27.0808 52.6364 27.0806 52.6514 27.0811C52.9052 27.0881 53.1469 27.1943 53.3232 27.377C53.4996 27.5597 53.5968 27.8046 53.5947 28.0586C53.5927 28.3124 53.4916 28.5554 53.3125 28.7354L40.7432 39.7471C40.6271 39.8589 40.4844 39.9402 40.3291 39.9834C40.2912 39.9939 40.2526 40.001 40.2139 40.0068C40.2627 40.0011 40.3117 39.9937 40.3594 39.9805C40.5151 39.9372 40.6581 39.856 40.7744 39.7441L53.3799 28.7324C53.5595 28.5525 53.6611 28.3095 53.6631 28.0557C53.6651 27.8017 53.5675 27.5568 53.3906 27.374C53.2138 27.1913 52.9714 27.0852 52.7168 27.0781ZM29.2158 37.2021C29.2158 37.8126 29.2714 38.4217 29.3799 39.0225H13.2158C13.1401 39.0221 13.0646 39.0194 12.9893 39.0156C13.0804 39.0211 13.1719 39.025 13.2637 39.0254H29.3809C29.2725 38.4237 29.2176 37.8135 29.2178 37.2021H29.2158ZM10.4082 26.541C9.9055 26.5417 9.42357 26.7405 9.06836 27.0947C8.71318 27.4489 8.51338 27.9294 8.5127 28.4307V34.1299L8.51953 34.3623C8.58128 35.5204 9.07035 36.6184 9.89648 37.4424C10.7775 38.321 11.9708 38.8171 13.2168 38.8223H29.1445C29.0705 38.3513 29.0296 37.8761 29.0205 37.3994H21.3594C21.0484 37.3994 20.7494 37.276 20.5293 37.0566C20.3092 36.8371 20.1866 36.5392 20.1865 36.2295C20.1865 35.9198 20.3088 35.6212 20.5293 35.4014C20.7497 35.1817 21.0489 35.0596 21.3594 35.0596H29.0156V34.3887H21.3555C21.048 34.3828 20.7559 34.2553 20.541 34.0371C20.3529 33.8459 20.2361 33.5968 20.21 33.332L20.2041 33.2178C20.2042 32.911 20.3262 32.6178 20.541 32.3994C20.756 32.181 21.048 32.0537 21.3555 32.0479H29.0156V26.541H10.4082ZM36.5518 31.7861C36.3742 31.7067 36.1776 31.6826 35.9883 31.7148C36.1716 31.687 36.3606 31.7122 36.5322 31.7891C36.7636 31.893 36.9453 32.0832 37.0381 32.3193L40.4648 37.3193L40.4844 37.3018L37.0586 32.3164C36.9656 32.0804 36.7837 31.8901 36.5518 31.7861ZM29.2158 35.2598H21.3594C21.1014 35.2598 20.8533 35.3611 20.6709 35.543C20.4885 35.7249 20.3867 35.9723 20.3867 36.2295C20.3868 36.4865 20.4887 36.7332 20.6709 36.915C20.832 37.0757 21.0444 37.1735 21.2695 37.1943C21.0543 37.1687 20.852 37.0727 20.6973 36.918C20.5156 36.7362 20.4141 36.4894 20.4141 36.2324C20.4141 35.9752 20.5154 35.7278 20.6973 35.5459C20.8791 35.3641 21.1266 35.2627 21.3838 35.2627H29.2178V34.1914H29.2158V35.2598ZM29.2158 32.248H21.3594C21.1047 32.2529 20.862 32.3577 20.6836 32.5391C20.5052 32.7204 20.4044 32.9638 20.4043 33.2178C20.4043 33.4718 20.5052 33.7161 20.6836 33.8975C20.8425 34.0588 21.0525 34.1581 21.2764 34.1816C21.0625 34.1534 20.8625 34.0558 20.71 33.9004C20.532 33.719 20.4316 33.4748 20.4316 33.2207C20.4317 32.9668 20.5321 32.7233 20.71 32.542C20.8879 32.3607 21.1298 32.2559 21.3838 32.251H29.2178V26.3438H29.2158V32.248ZM12.0322 27.7734C12.4034 27.709 12.7854 27.7332 13.1455 27.8438H13.1445L16.4756 28.8506L16.7793 28.9541C17.4776 29.2247 18.0872 29.6877 18.5361 30.291C19.0489 30.9804 19.3251 31.8173 19.3213 32.6758L19.3154 32.791C19.304 32.9053 19.2754 33.0171 19.2314 33.123C19.1726 33.2649 19.0864 33.3943 18.9775 33.5029C18.8692 33.611 18.7397 33.6978 18.5967 33.7568C18.4894 33.8011 18.3763 33.8288 18.2617 33.8398L18.1475 33.8457H12.459C11.8165 33.8449 11.2003 33.5896 10.7461 33.1367C10.2928 32.6847 10.0369 32.0719 10.0352 31.4326C10.024 30.9174 9.9927 30.2933 10.0967 29.7188C10.202 29.1371 10.4507 28.5764 11.0195 28.207C11.3184 27.986 11.6654 27.8372 12.0322 27.7734ZM12.6006 27.9443C12.4227 27.9314 12.2432 27.94 12.0664 27.9707C11.7264 28.0298 11.405 28.1685 11.1289 28.375C10.1161 29.0328 10.2136 30.3778 10.2363 31.4287C10.2371 32.0162 10.4711 32.5796 10.8877 32.9951C11.2632 33.3695 11.7596 33.5949 12.2852 33.6367C11.7798 33.5848 11.3048 33.3604 10.9424 32.998C10.527 32.5826 10.2927 32.0192 10.292 31.4316C10.2694 30.3807 10.1728 29.0357 11.1826 28.3779C11.4579 28.1714 11.7782 28.0328 12.1172 27.9736C12.2771 27.9458 12.4394 27.9363 12.6006 27.9443ZM12.4834 29.8857C12.4965 29.8875 12.5098 29.8878 12.5225 29.8916L15.8535 30.8984C16.2915 31.029 16.6659 31.3171 16.9043 31.7061H12.4814C12.4906 31.707 12.4996 31.709 12.5088 31.709H16.9414C16.7037 31.32 16.3303 31.0319 15.8936 30.9014L12.5723 29.8945C12.5472 29.8869 12.5204 29.8837 12.4941 29.8838C12.4905 29.8843 12.487 29.8852 12.4834 29.8857ZM12.3975 30.0967C12.3942 30.1028 12.3878 30.1207 12.3818 30.1611V31.4287C12.3819 31.4497 12.3904 31.4695 12.4043 31.4834C12.4182 31.4972 12.438 31.5058 12.459 31.5059H16.4912C16.3342 31.349 16.147 31.224 15.9395 31.1406L15.7959 31.0898L12.4648 30.083H12.4639C12.4626 30.0826 12.4606 30.0824 12.458 30.082C12.4182 30.0886 12.4022 30.0943 12.3975 30.0967ZM8.58203 19.5693C8.53628 19.5668 8.49024 19.5641 8.44434 19.5635H6.69238C6.06277 19.5641 5.45888 19.8139 5.01367 20.2578C4.56858 20.7018 4.31794 21.3039 4.31738 21.9316V22.9775C4.31794 23.6053 4.56859 24.2074 5.01367 24.6514C5.45888 25.0953 6.06276 25.3451 6.69238 25.3457H6.7002C6.09366 25.3301 5.51504 25.0844 5.08496 24.6543C4.64115 24.2104 4.39118 23.6082 4.39062 22.9805V21.9346C4.39118 21.3068 4.64114 20.7047 5.08496 20.2607C5.52888 19.8168 6.131 19.567 6.75879 19.5664H8.50586C8.53122 19.5668 8.55671 19.5684 8.58203 19.5693ZM34.6484 21.4404C33.1835 21.7394 31.6882 21.8951 30.1836 21.9004C29.9266 21.9018 29.6803 22.0039 29.499 22.1855C29.3177 22.3673 29.2159 22.6137 29.2158 22.8701V24.4004H11.4629L11.4619 24.4033H29.2178V22.873C29.2178 22.6167 29.3192 22.3702 29.5 22.1885C29.6807 22.0069 29.9264 21.9048 30.1826 21.9033C31.6876 21.8981 33.1834 21.7413 34.6484 21.4404ZM18.6162 14.3965C17.9959 14.4415 17.3945 14.6379 16.8652 14.9688C16.2604 15.3468 15.7737 15.8865 15.4609 16.5264L11.7295 24.2002H29.0156V22.8701L29.0215 22.7549C29.048 22.4881 29.166 22.2369 29.3574 22.0449C29.5764 21.8257 29.8732 21.7019 30.1826 21.7002L30.8223 21.6895C33.947 21.5898 37.0174 20.8375 39.8379 19.4854L38.4004 16.5283L38.2754 16.293C37.9643 15.7554 37.5247 15.3009 36.9951 14.9697C36.4655 14.6386 35.8638 14.4418 35.2432 14.3965L34.9756 14.3867H18.8838L18.6162 14.3965ZM8.28027 21.4961C8.72344 21.5234 9.12551 21.6182 9.32715 21.8828L10.082 22.6826L9.73047 23.4062H6.73047C6.73991 23.4069 6.74927 23.4092 6.75879 23.4092H9.78809L10.1387 22.6855L9.38574 21.8857C9.17531 21.6089 8.7463 21.5184 8.28027 21.4961ZM43.0107 20.1582C40.5637 21.6963 37.8683 22.7731 35.0576 23.3486C37.8817 22.7739 40.5905 21.6961 43.0488 20.1553L43.9795 19.5557L43.9619 19.5449L43.0107 20.1582ZM8.07422 21.6885C7.82164 21.6831 7.56264 21.6941 7.31934 21.7031C7.0906 21.7116 6.86755 21.7182 6.69238 21.7031C6.59261 21.7056 6.55288 21.7392 6.52637 21.7793C6.48931 21.8356 6.4629 21.9312 6.4541 22.0742C6.44554 22.214 6.45362 22.3707 6.46191 22.5342C6.46938 22.6814 6.47579 22.8413 6.46289 22.9775H6.46387C6.46407 23.0386 6.48901 23.0965 6.53125 23.1387C6.57429 23.1815 6.63221 23.2058 6.69238 23.2061H9.60547L9.84082 22.7188L9.18066 22.0195L9.17285 22.0127L9.16699 22.0039C9.08832 21.9008 8.95379 21.8217 8.75781 21.7686C8.56281 21.7157 8.32744 21.6938 8.07422 21.6885ZM18.8828 12.2471C17.7662 12.2501 16.6726 12.5658 15.7266 13.1572C14.7805 13.7487 14.0195 14.5928 13.5303 15.5938L11.0088 20.7764C11.0203 20.7905 11.0326 20.804 11.0439 20.8184L13.5771 15.5967C14.0649 14.5958 14.8233 13.7517 15.7666 13.1602C16.71 12.5687 17.8006 12.2531 18.9141 12.25H34.9619C36.0758 12.2534 37.1667 12.5694 38.1104 13.1611C39.0539 13.7529 39.8127 14.5974 40.3008 15.5986L41.7754 18.6377C41.7844 18.6321 41.7936 18.6265 41.8027 18.6211L40.3311 15.5957C39.8416 14.5945 39.0801 13.75 38.1338 13.1582C37.1874 12.5665 36.0936 12.2504 34.9766 12.2471H18.8828Z" fill="#863087"/>
</svg>
