<svg width="52" height="52" viewBox="0 0 52 52" fill="none" xmlns="http://www.w3.org/2000/svg">
<path d="M24.9872 40.1458C23.2511 40.0235 21.5753 39.5897 20.0058 38.8564C19.7222 38.724 19.3972 38.7087 19.1017 38.8162C18.8075 38.9238 18.5675 39.1436 18.4346 39.4278L16.9514 42.6081C13.7629 40.8673 11.1321 38.2365 9.39191 35.048L12.5716 33.5654C12.8558 33.433 13.0762 33.1931 13.1832 32.8983C13.2901 32.6034 13.2754 32.2778 13.143 31.9942C12.4103 30.4247 11.976 28.7489 11.8536 27.0116C11.7662 25.782 10.7327 24.8182 9.50064 24.8182H1.18182C0.529455 24.8182 0 25.3476 0 26C0 40.3366 11.6634 52 26 52C26.6524 52 27.1818 51.4705 27.1818 50.8182V42.4994C27.1818 41.2673 26.218 40.2338 24.9872 40.1458ZM24.8182 49.6068C12.7229 49.0088 2.99118 39.2765 2.39318 27.1812L9.4965 27.1789C9.61114 28.8092 9.96154 30.3934 10.54 31.905L7.28827 33.4212C7.00405 33.5536 6.78364 33.7935 6.67668 34.0884C6.56973 34.3832 6.58391 34.7082 6.71627 34.9925C8.82936 39.5153 12.4847 43.1706 17.0075 45.2837C17.2906 45.4161 17.6156 45.4309 17.9116 45.3233C18.2065 45.2158 18.4464 44.996 18.5788 44.7117L20.095 41.46C21.6066 42.0385 23.1902 42.3877 24.8182 42.4988V49.6068ZM23.6364 23.6364V22.4545C23.6364 21.8028 23.1063 21.2727 22.4545 21.2727H18.9091C18.2567 21.2727 17.7273 20.7433 17.7273 20.0909C17.7273 19.4385 18.2567 18.9091 18.9091 18.9091H22.4545C24.4099 18.9091 26 20.4992 26 22.4545V23.6364C26 25.5917 24.4099 27.1818 22.4545 27.1818H21.2727C20.621 27.1818 20.0909 27.7119 20.0909 28.3636V30.7273H24.8182C25.4705 30.7273 26 31.2567 26 31.9091C26 32.5615 25.4705 33.0909 24.8182 33.0909H18.9091C18.2567 33.0909 17.7273 32.5615 17.7273 31.9091V28.3636C17.7273 26.4083 19.3174 24.8182 21.2727 24.8182H22.4545C23.1063 24.8182 23.6364 24.2881 23.6364 23.6364ZM34.2727 27.1818H29.5455C28.8931 27.1818 28.3636 26.6524 28.3636 26V20.0909C28.3636 19.4385 28.8931 18.9091 29.5455 18.9091C30.1978 18.9091 30.7273 19.4385 30.7273 20.0909V24.8182H34.2727V20.0909C34.2727 19.4385 34.8022 18.9091 35.4545 18.9091C36.1069 18.9091 36.6364 19.4385 36.6364 20.0909V31.9091C36.6364 32.5615 36.1069 33.0909 35.4545 33.0909C34.8022 33.0909 34.2727 32.5615 34.2727 31.9091V27.1818ZM52 26C52 37.7579 44.0759 48.0882 32.7305 51.1207C32.6282 51.1479 32.5254 51.1609 32.4244 51.1609C31.902 51.1609 31.4245 50.8117 31.2827 50.284C31.1143 49.6535 31.489 49.0059 32.1195 48.8369C35.8321 47.8447 39.1389 45.9893 41.8547 43.5264L39.3711 41.0428C38.9096 40.5813 38.9096 39.8332 39.3711 39.3717C39.8326 38.9102 40.5807 38.9102 41.0422 39.3717L43.5275 41.857C47.1049 37.895 49.3261 32.7452 49.6039 27.1824H46.0909C45.4385 27.1824 44.9091 26.653 44.9091 26.0006C44.9091 25.3482 45.4385 24.8188 46.0909 24.8188H49.6062C49.3279 19.191 47.0712 14.0749 43.5193 10.1524L41.0416 12.6301C40.8105 12.8611 40.5086 12.9764 40.206 12.9764C39.9035 12.9764 39.6015 12.8611 39.3705 12.6301C38.909 12.1686 38.909 11.4205 39.3705 10.959L41.8482 8.48132C37.9257 4.92877 32.8096 2.67209 27.1818 2.39377V5.90909C27.1818 6.56145 26.6524 7.09091 26 7.09091C25.3476 7.09091 24.8182 6.56145 24.8182 5.90909V2.39614C19.256 2.67386 14.1056 4.89509 10.1435 8.47245L12.6289 10.9578C13.0904 11.4193 13.0904 12.1674 12.6289 12.6289C12.3979 12.86 12.0959 12.9752 11.7934 12.9752C11.4908 12.9752 11.1889 12.86 10.9578 12.6289L8.47423 10.1453C6.01132 12.8611 4.15586 16.1673 3.16373 19.88C2.99473 20.5105 2.3465 20.8851 1.71659 20.7167C1.08609 20.5483 0.711454 19.9006 0.879864 19.2695C3.91182 7.92409 14.2421 0 26 0C40.3366 0 52 11.6634 52 26Z" fill="#863087"/>
</svg>
