<svg width="64" height="64" viewBox="0 0 64 64" fill="none" xmlns="http://www.w3.org/2000/svg">
<path d="M16.9199 30.9092C18.1359 30.9092 19.1557 31.8599 19.2422 33.0732C19.3538 34.6586 19.7494 36.1881 20.418 37.6201C20.5569 37.9179 20.5732 38.2597 20.4609 38.5693C20.3486 38.8791 20.1166 39.1306 19.8184 39.2695L17.0303 40.5693C18.5969 43.3778 20.9221 45.7022 23.7305 47.2695L25.0312 44.4814C25.1708 44.1833 25.4227 43.9527 25.7314 43.8398L25.8496 43.8037C26.1268 43.7331 26.4204 43.7604 26.6807 43.8818C28.1125 44.5509 29.6414 44.9469 31.2256 45.0586C32.4399 45.1457 33.3916 46.1648 33.3916 47.3809V55.0596C33.3916 55.7446 32.8354 56.3008 32.1504 56.3008C18.8337 56.3008 8 45.4671 8 32.1504C8 31.4654 8.55623 30.9092 9.24121 30.9092H16.9199ZM32.1504 8C45.4671 8 56.3008 18.8337 56.3008 32.1504C56.3008 43.0717 48.9398 52.6666 38.4014 55.4834C38.2945 55.5118 38.187 55.5253 38.0811 55.5254C37.5669 55.5254 37.0939 55.2038 36.9141 54.707L36.8818 54.6055C36.705 53.9434 37.0989 53.2633 37.7607 53.0859C41.1108 52.1907 44.099 50.5267 46.5664 48.3213L44.3867 46.1426C43.9022 45.6581 43.9024 44.8723 44.3867 44.3877C44.8713 43.9031 45.657 43.9031 46.1416 44.3877L48.3223 46.5684C51.5067 42.9897 53.4942 38.3761 53.7793 33.3916H50.6963C50.0114 33.3916 49.4553 32.8362 49.4551 32.1514C49.4551 31.4663 50.0113 30.9102 50.6963 30.9102H53.7812C53.4954 25.8687 51.4785 21.283 48.3154 17.7393L46.1406 19.915C45.8981 20.1574 45.581 20.2783 45.2637 20.2783C44.9463 20.2783 44.6292 20.1574 44.3867 19.915C43.9021 19.4305 43.9021 18.6447 44.3867 18.1602L46.5605 15.9854C43.0171 12.8224 38.4324 10.8045 33.3916 10.5186V13.6045C33.3916 14.2895 32.8354 14.8457 32.1504 14.8457C31.4654 14.8457 30.9092 14.2895 30.9092 13.6045V10.5205C25.9255 10.8057 21.311 12.7934 17.7324 15.9775L19.9141 18.1592C20.3986 18.6438 20.3986 19.4295 19.9141 19.9141C19.6716 20.1566 19.3536 20.2773 19.0361 20.2773C18.7188 20.2772 18.4016 20.1564 18.1592 19.9141L15.9795 17.7344C13.7741 20.2018 12.1111 23.19 11.2158 26.54C11.0384 27.2019 10.3578 27.5948 9.69629 27.418C9.03439 27.2411 8.6409 26.5618 8.81738 25.8994C11.6337 15.3609 21.2291 8 32.1504 8ZM10.5186 33.3896C11.1395 44.3524 19.9466 53.1596 30.9092 53.7812V47.5166C29.4876 47.4066 28.1035 47.1021 26.7773 46.6084L25.4355 49.4863C25.2965 49.7846 25.0447 50.0151 24.7354 50.1279C24.4635 50.2267 24.1683 50.2275 23.8994 50.1328L23.7861 50.0869C19.5793 48.1215 16.1793 44.7214 14.2139 40.5146C14.0749 40.2163 14.0606 39.8749 14.1729 39.5654C14.2852 39.2558 14.5163 39.0042 14.8145 38.8652L17.6914 37.5225C17.1978 36.1964 16.8912 34.8119 16.7783 33.3887L10.5186 33.3896ZM28.8779 25.4551C30.7656 25.4552 32.3008 26.9903 32.3008 28.8779V29.9688C32.3007 31.8563 30.7655 33.3915 28.8779 33.3916H27.7871C27.2684 33.3916 26.8458 33.8133 26.8457 34.332V36.3643H31.0596C31.7444 36.3643 32.3005 36.9197 32.3008 37.6045C32.3008 38.2895 31.7446 38.8457 31.0596 38.8457H25.6045C24.9197 38.8455 24.3643 38.2894 24.3643 37.6045V34.332C24.3644 32.4444 25.8994 30.9092 27.7871 30.9092H28.8779C29.3965 30.909 29.8183 30.4874 29.8184 29.9688V28.8779C29.8184 28.3592 29.3966 27.9367 28.8779 27.9365H25.6045C24.9198 27.9363 24.3645 27.381 24.3643 26.6963C24.3643 26.0114 24.9197 25.4553 25.6045 25.4551H28.8779ZM40.8779 25.4551C41.5628 25.4552 42.1182 26.0114 42.1182 26.6963V37.6045C42.1182 38.2894 41.5628 38.8456 40.8779 38.8457C40.1929 38.8457 39.6367 38.2895 39.6367 37.6045V33.3916H35.4229C34.7379 33.3915 34.1826 32.8353 34.1826 32.1504V26.6963C34.1826 26.0114 34.7379 25.4552 35.4229 25.4551C36.1079 25.4551 36.6641 26.0113 36.6641 26.6963V30.9092H39.6367V26.6963C39.6367 26.0113 40.1929 25.4551 40.8779 25.4551Z" fill="#863087"/>
</svg>
