<svg width="173" height="181" viewBox="0 0 173 181" fill="none" xmlns="http://www.w3.org/2000/svg">
<path d="M0.47168 34.3887C3.03458 -7.36541 74.4547 -11.319 88.4844 23.7432C89.0783 25.2222 90.9717 30.7661 90.9717 32.0176V62.5078C92.6097 61.7147 94.4512 61.1927 96.2207 60.7822H96.2168C140.789 50.3957 179.932 86.6293 171.351 131.931C166.871 155.59 147.413 174.825 123.729 179.169C93.6975 184.681 65.1564 168.826 54.6699 140.237C33.2348 143.199 3.72401 134.449 0.47168 109.754C1.6514 85.0307 -1.03491 58.9484 0.47168 34.3887ZM165.372 109.866C160.521 81.6953 134.714 62.9219 106.432 65.417C63.3424 69.2155 42.0312 121.97 70.2539 154.765L70.25 154.769C106.588 196.989 174.854 164.909 165.372 109.866ZM108.823 75.3818C138.01 73.2136 161 99.7701 155.42 128.355C148.995 161.257 109.035 175.187 83.3906 153.589C52.9519 127.949 69.2453 78.3273 108.823 75.3818ZM126.843 154.976C121.534 138.87 103.227 138.539 96.9814 154.338C97.1688 155.175 102.984 156.566 104.108 156.785C109.469 157.825 114.375 157.838 119.748 156.854C122.163 156.411 124.431 155.406 126.843 154.976ZM74.2275 124.88C74.2275 125.848 75.2713 129.467 75.6221 130.659C77.2602 136.263 80.4529 141.536 84.3906 145.801V145.797C97.4517 134.493 90.6485 117.889 74.2275 116.311V124.88ZM149.557 116.314C132.996 117.455 126.042 134.502 139.047 145.781C139.685 145.896 142.729 141.721 143.271 140.919C148.202 133.637 150.509 125.087 149.557 116.314ZM6.86914 110.137C6.86914 112.68 9.97413 118.428 11.6641 120.488C20.3609 131.098 34.5739 134.781 47.7266 134.255C48.9859 134.203 50.5679 134.43 51.7197 134.255V134.25C52.3375 134.154 52.3302 134.49 52.3223 133.645C52.2943 131.281 51.2817 128.176 51.1143 125.673C50.919 122.72 51.2537 119.67 51.1143 116.709C37.1245 118.228 22.1818 114.199 11.249 105.358L6.86914 100.771V110.137ZM116.188 130.975C128.971 126.499 124.806 106.048 110.003 108.049C93.2673 110.313 99.1062 136.956 116.188 130.975ZM6.86914 85.8242C6.86916 86.5735 8.17194 90.3559 8.55859 91.3086C14.5969 106.143 36.7499 112.743 51.4531 110.28H51.457C52.4335 104.429 53.9084 98.6624 56.6982 93.4014C56.7102 92.9231 51.6162 93.9749 50.9307 94.0107C36.4707 94.7839 22.3929 91.8028 11.249 82.2412L6.86914 77.2549V85.8242ZM104.12 82.835C96.2683 84.1184 88.3569 88.7777 83.1914 94.7881H83.1953C82.3424 95.7765 78.0178 101.456 78.6436 102.333C94.4588 110.687 107.468 99.9256 104.12 82.835ZM119.672 82.835C118.094 90.7824 119.76 100.758 128.229 103.967C134.575 106.37 139.226 104.621 145.177 102.361C140.757 92.3453 130.461 84.6604 119.672 82.835ZM78.7988 60.499C58.1888 76.5215 23.8641 75.2698 6.86914 54.5322V62.7031C6.86914 65.3814 10.0019 71.2162 11.7197 73.3965C22.8518 87.5417 44.5022 90.5309 61.0469 85.7959C67.5036 77.6254 74.8889 69.6104 84.5898 65.2979V54.5322L78.7988 60.499ZM84.5381 33.2646C82.6567 13.5236 58.165 5.07359 41.0664 6.42871C21.6122 7.96719 -0.389021 23.289 8.79004 45.2422C21.684 76.0753 88.0016 69.6022 84.5381 33.2646ZM41.4648 15.1934C55.9209 14.0574 81.4731 20.1638 78.9785 39.1553C76.7107 56.4372 48.217 60.2919 34.6895 57.207C-0.412541 49.1998 8.41553 17.7921 41.4648 15.1934ZM67.5869 43.4443C56.7896 34.5763 33.2548 34.6481 22.8242 44.373C35.4071 55.481 55.3154 54.0701 68.6475 44.9629C68.8029 44.1219 68.1051 43.8708 67.5869 43.4443ZM64.6699 26.0312C54.1437 20.2281 39.0614 19.8686 28.2402 25.0898L28.2441 25.0938C23.553 27.3576 16.6461 33.2249 18.627 38.9922C20.0657 37.9799 21.2573 36.8838 22.8076 35.999C35.1273 28.9484 56.6141 28.7654 68.7705 36.2822C69.3962 36.6688 72.3451 39.2583 72.6328 38.9922C74.4542 33.233 69.2255 28.5423 64.6699 26.0312Z" fill="#863087"/>
</svg>
