<svg width="64" height="64" viewBox="0 0 64 64" fill="none" xmlns="http://www.w3.org/2000/svg">
<path d="M17.692 4.08172C23.9517 3.5085 30.7144 5.94729 32.942 11.5143C33.0369 11.7507 33.2316 12.3032 33.4029 12.8444C33.4887 13.1154 33.5693 13.3858 33.6285 13.6139C33.686 13.8354 33.7291 14.0359 33.7291 14.1559V23.4509C34.1976 23.25 34.7028 23.1094 35.1842 22.9977C49.2148 19.7284 61.5476 31.1401 58.8453 45.4069C57.4336 52.8614 51.3046 58.9198 43.8434 60.2887C34.4272 62.0169 25.4721 57.071 22.1363 48.1364C18.7868 48.5758 14.8324 48.1164 11.5719 46.5886C8.26994 45.0412 5.66579 42.3917 5.14902 38.4684L5.14707 38.4548L5.14805 38.4421C5.33206 34.5858 5.21395 30.6222 5.10898 26.6579C5.00408 22.696 4.91224 18.7332 5.14805 14.8884C5.55507 8.25758 11.4289 4.65544 17.692 4.08172ZM56.7115 32.2585C58.7775 35.9786 59.6177 40.5103 58.6959 45.3766C57.2959 52.7701 51.2151 58.7817 43.8141 60.1393C36.7635 61.4332 29.976 58.9584 25.6461 53.8591C29.9759 58.9598 36.7645 61.4354 43.816 60.1413C51.2169 58.7836 57.2979 52.7721 58.6979 45.3786C59.6615 40.291 58.6986 35.5695 56.4234 31.7585L56.7115 32.2585ZM56.6822 38.5085C55.1802 29.7863 47.188 23.9698 38.4234 24.7428C25.0807 25.9194 18.4781 42.2605 27.2184 52.4167L27.3092 52.5221H27.3082C38.5871 65.4432 59.6116 55.5136 56.6822 38.5085ZM39.151 27.5641C48.3727 26.8795 55.6335 35.2691 53.8717 44.2966C51.8417 54.6915 39.2183 59.0903 31.1178 52.2682C21.5021 44.1682 26.6504 28.4948 39.151 27.5641ZM51.9244 34.2995C53.6738 37.1515 54.4268 40.6571 53.7223 44.2663C51.7143 54.5479 39.2263 58.9012 31.2125 52.152C30.6871 51.7095 30.2086 51.242 29.7711 50.7575C30.2091 51.2427 30.6884 51.7108 31.2145 52.154C39.2283 58.903 51.7163 54.5499 53.7242 44.2682C54.4289 40.6582 53.6747 37.1519 51.9244 34.2995ZM25.1861 53.2946C25.2899 53.4269 25.3956 53.5572 25.5025 53.6862C25.3956 53.5572 25.2899 53.4269 25.1861 53.2946ZM40.234 48.8981C38.4449 48.8623 36.5993 49.9971 35.6334 52.361C35.6362 52.363 35.639 52.3657 35.6422 52.3678C35.6871 52.3975 35.755 52.4317 35.8434 52.4694C36.0195 52.5446 36.2575 52.6235 36.5084 52.6979C37.0093 52.8464 37.5463 52.9712 37.7174 53.0046C39.3736 53.3259 40.888 53.3302 42.5484 53.0261C42.9156 52.9588 43.2738 52.8481 43.6412 52.735C43.9513 52.6396 44.2691 52.5438 44.5953 52.4743C43.7589 50.1155 42.0032 48.9338 40.234 48.8981ZM24.7232 52.6784C24.8088 52.7972 24.8959 52.9145 24.984 53.0309C24.8959 52.9146 24.8089 52.7972 24.7232 52.6784ZM27.1031 52.5124L27.1012 52.5143C27.115 52.5304 27.1293 52.5462 27.1432 52.5622C27.1299 52.5468 27.1164 52.5317 27.1031 52.5163L27.1051 52.5143C27.02 52.4155 26.9382 52.3145 26.8561 52.2145C26.9377 52.3138 27.0187 52.4142 27.1031 52.5124ZM43.2203 50.0085C40.8298 47.7439 36.9884 48.5183 35.4596 52.3854C35.4616 52.3944 35.4662 52.4034 35.4723 52.4128C35.467 52.4041 35.4634 52.3957 35.4615 52.3874C36.99 48.5213 40.8297 47.746 43.2203 50.0085ZM24.2867 52.0456C24.3413 52.1281 24.3961 52.2102 24.4518 52.2917C24.3961 52.2102 24.3413 52.1281 24.2867 52.0456ZM44.4352 51.6989C44.3987 51.6234 44.3604 51.5498 44.3219 51.4772C44.3256 51.4842 44.3299 51.4908 44.3336 51.4977L44.4352 51.6989ZM23.815 51.2946C23.8745 51.3944 23.9336 51.4941 23.9947 51.5925C23.9336 51.4941 23.8746 51.3943 23.815 51.2946ZM43.3551 50.1413C43.5891 50.3797 43.8078 50.6485 44.0074 50.9479C43.8079 50.6484 43.5889 50.3798 43.3551 50.1413ZM25.1666 49.738C25.3715 50.1058 25.5915 50.4693 25.8287 50.8268C25.5916 50.4692 25.3715 50.1059 25.1666 49.738ZM23.3795 50.5251C23.4261 50.612 23.4723 50.6989 23.5201 50.7848C23.4723 50.6989 23.4261 50.612 23.3795 50.5251ZM28.7115 49.4313C28.9359 49.7511 29.177 50.0641 29.4342 50.3708C29.1769 50.0642 28.936 49.751 28.7115 49.4313ZM51.7545 40.6696C49.2963 40.887 47.5706 42.2536 46.9244 43.9743C46.2748 45.7048 46.7055 47.8222 48.6363 49.5378C48.6704 49.5118 48.7154 49.4739 48.7672 49.4216C48.8816 49.3059 49.0208 49.1427 49.1617 48.9675C49.4432 48.6175 49.721 48.2317 49.8033 48.11C51.2975 45.9031 52.0068 43.3217 51.7545 40.6696ZM28.5016 43.1823L28.5143 43.3093C28.5226 43.3643 28.5341 43.4317 28.5504 43.5095C28.582 43.6604 28.6262 43.8389 28.6734 44.0212C28.768 44.3858 28.8757 44.7604 28.9303 44.946C29.4209 46.6245 30.3669 48.2094 31.5377 49.5075C33.4451 47.7946 33.8798 45.7247 33.2535 44.0231C32.6278 42.3231 30.9307 40.9593 28.5016 40.6735V43.1823ZM53.0787 30.4802C49.5736 26.3878 44.1551 24.0846 38.4088 24.5915C26.2352 25.6647 19.6254 39.2411 24.9859 49.4089C19.6276 39.2412 26.2379 25.6665 38.4107 24.5934C44.156 24.0867 49.5736 26.3891 53.0787 30.4802ZM30.7496 48.7927C30.8075 48.8685 30.8659 48.9439 30.9254 49.0182C30.866 48.9438 30.8075 48.8685 30.7496 48.7927ZM47.5846 48.6247C47.6816 48.7537 47.7854 48.8813 47.8961 49.0075C47.7854 48.8813 47.6815 48.7537 47.5846 48.6247ZM28.2096 48.6618C28.2691 48.7602 28.3298 48.8583 28.3922 48.9557C28.3298 48.8583 28.2691 48.7602 28.2096 48.6618ZM47.1568 47.9723C47.1987 48.0465 47.2427 48.1204 47.2887 48.194C47.2427 48.1204 47.1987 48.0466 47.1568 47.9723ZM7.20859 43.0485C10.4741 47.241 17.0956 48.6835 22.233 47.9743V47.9723C17.0962 48.6819 10.475 47.2398 7.20859 43.0485ZM28.3492 43.1803C28.3496 43.4837 28.6752 44.6138 28.7848 44.986C29.0935 46.0423 29.5803 47.0603 30.1871 47.9948C29.581 47.0608 29.0953 46.0434 28.7867 44.988C28.6772 44.6157 28.3515 43.4856 28.3512 43.1823V40.5036C30.2006 40.6815 31.6571 41.4715 32.5758 42.572C31.6572 41.4705 30.1998 40.6796 28.3492 40.5016V43.1803ZM51.8893 40.5036C47.6279 40.7972 45.4026 44.4609 47.0191 47.7136C45.405 44.4618 47.6298 40.7999 51.8893 40.5055V40.5036ZM7.44688 38.568C7.44688 38.7416 7.50054 38.9845 7.59824 39.2702C7.69488 39.5527 7.83059 39.8659 7.98301 40.1764C8.28903 40.7998 8.65785 41.3991 8.91172 41.7087C11.5884 44.9735 15.9749 46.1191 20.0592 45.9557C20.2638 45.9474 20.4952 45.9608 20.7076 45.9694C20.916 45.9779 21.1078 45.98 21.2672 45.9587L21.2896 45.9557C21.3118 45.9523 21.3328 45.953 21.3512 45.9518C21.3511 45.9411 21.3513 45.9294 21.3512 45.9167L21.3355 45.6413C21.3077 45.3557 21.2478 45.041 21.1822 44.7145C21.0962 44.286 21.0012 43.8364 20.9742 43.4333C20.9432 42.9639 20.9543 42.488 20.9674 42.0192C20.979 41.6021 20.9902 41.191 20.9781 40.7858C16.6161 41.2164 11.9784 39.9464 8.5709 37.1911L8.56406 37.1852L8.55723 37.1784L7.44688 36.0153V38.568ZM43.5836 40.78C43.1945 39.149 41.7764 37.7696 39.5514 38.07C38.2882 38.2409 37.4633 38.8684 37.0064 39.6764C36.547 40.4893 36.453 41.4982 36.6803 42.4352C36.9075 43.3719 37.4522 44.2236 38.2535 44.7282C39.0508 45.2301 40.1178 45.3986 41.4137 44.945C43.3228 44.2764 43.974 42.4166 43.5836 40.78ZM37.1441 43.8522C37.2137 43.9536 37.288 44.0513 37.3668 44.1452C37.2881 44.0513 37.2136 43.9536 37.1441 43.8522ZM42.6842 38.8708C41.9494 38.1542 40.8813 37.7368 39.5289 37.9196C36.4705 38.3335 35.8257 41.3526 36.8844 43.4147C35.8273 41.3526 36.4733 38.3352 39.5309 37.9216C40.8821 37.739 41.9495 38.1553 42.6842 38.8708ZM32.7643 42.8122C32.8142 42.8801 32.8647 42.9473 32.9107 43.0173C32.8647 42.9473 32.8142 42.8802 32.7643 42.8122ZM6.32871 41.6979C6.54811 42.1083 6.79729 42.497 7.0709 42.8659C6.79719 42.4971 6.54822 42.1083 6.32871 41.6979ZM8.79356 41.8014C8.95068 41.9931 9.11456 42.1768 9.28281 42.3542C9.11519 42.1774 8.95208 41.9944 8.79551 41.8034C8.77065 41.7731 8.74503 41.74 8.71836 41.7048C8.74446 41.7392 8.7692 41.7717 8.79356 41.8014ZM8.11094 40.7448C8.27814 41.0467 8.44952 41.3252 8.60313 41.5456C8.44952 41.325 8.278 41.0466 8.11094 40.7448ZM8.66367 37.0729L8.66563 37.0749C12.0817 39.8371 16.7504 41.0958 21.1217 40.6218V40.6198C16.7499 41.0943 12.0801 39.8355 8.66367 37.0729ZM7.29453 38.5661C7.29454 38.9501 7.52303 39.5675 7.81699 40.1764C7.52354 39.5682 7.29648 38.9516 7.29648 38.568V35.6413L7.29453 35.6393V38.5661ZM43.0816 39.3327C43.146 39.4209 43.2059 39.5118 43.2623 39.6052C43.206 39.5118 43.1459 39.4209 43.0816 39.3327ZM7.44688 30.9704C7.44688 30.9834 7.45041 31.015 7.46152 31.069C7.47203 31.1201 7.48692 31.1833 7.50645 31.2555C7.54564 31.4006 7.59969 31.5776 7.65781 31.7575C7.77424 32.1178 7.90499 32.4834 7.96348 32.6276C8.88563 34.8931 11.0464 36.5452 13.566 37.5358C16.0464 38.5109 18.8505 38.8335 21.1012 38.4802C21.3962 36.7486 21.8372 35.0338 22.6412 33.4528C22.6372 33.4531 22.6327 33.4535 22.6285 33.4538C22.4834 33.4633 22.2835 33.4898 22.0719 33.5221C21.8611 33.5544 21.6435 33.5916 21.4635 33.6218C21.2901 33.6508 21.1385 33.675 21.0738 33.6784C16.5307 33.9212 12.0887 32.9852 8.56797 29.9645L8.56016 29.9577L8.55332 29.9489L7.44688 28.6901V30.9704ZM37.5689 30.2184C35.2145 30.6444 32.8532 32.0447 31.2926 33.8454L31.2662 33.8757C31.1376 34.0248 30.737 34.5409 30.3932 35.0534C30.2212 35.3097 30.0672 35.5607 29.9684 35.7614C29.9186 35.8623 29.8857 35.9444 29.8707 36.0046C29.8679 36.0158 29.8672 36.0257 29.8658 36.0339C32.2723 37.2817 34.4316 37.0797 35.8648 35.9528C37.2859 34.8352 38.0286 32.7801 37.5689 30.2184ZM42.6744 30.2175C42.4604 31.4029 42.4808 32.7147 42.8551 33.8532C43.2436 35.0346 44.008 36.0235 45.2799 36.5055C47.1515 37.2143 48.5302 36.7366 50.318 36.0593C48.9443 33.0945 45.8923 30.8143 42.6744 30.2175ZM37.69 30.0407C35.2365 30.4419 32.7641 31.8979 31.15 33.7761H31.151C30.884 34.0856 29.5347 35.8586 29.7291 36.1335H29.7301C29.542 35.8534 30.8866 34.0867 31.1529 33.778H31.152C32.7657 31.9003 35.2371 30.4442 37.69 30.0427V30.0407ZM43.2262 35.0055C43.2684 35.0725 43.3123 35.1383 43.358 35.2028C43.3123 35.1383 43.2683 35.0725 43.2262 35.0055ZM42.5504 30.0407C42.2309 31.6497 42.3383 33.524 43.1725 34.9177C42.3395 33.5242 42.233 31.6508 42.5523 30.0427C45.1269 30.4783 47.6105 31.9823 49.2564 34.0622C47.6105 31.9812 45.1258 30.4764 42.5504 30.0407ZM8.36777 33.7428C8.44924 33.873 8.53785 33.9985 8.62754 34.1237C8.53789 33.9985 8.44919 33.873 8.36777 33.7428ZM54.651 32.6471C54.8832 33.0291 55.1012 33.4217 55.3033 33.8249C55.1013 33.4217 54.8832 33.0291 54.651 32.6471ZM51.3277 33.4069C51.4033 33.5114 51.4777 33.6168 51.5504 33.7233C51.4776 33.6168 51.4033 33.5114 51.3277 33.4069ZM7.29453 30.9684C7.29453 31.2025 7.70193 32.3843 7.82285 32.6823C7.95963 33.0183 8.12424 33.3402 8.31113 33.6491C8.12478 33.3409 7.96127 33.0195 7.82481 32.6843C7.70393 32.3864 7.29648 31.2045 7.29648 30.9704V28.2927L7.29453 28.2907V30.9684ZM8.66465 29.8483L8.66563 29.8503C12.148 32.8382 16.5474 33.7705 21.066 33.529C21.2735 33.518 22.7621 33.2121 22.8629 33.3249C22.7776 33.2065 21.272 33.5161 21.0641 33.527C16.5456 33.7685 12.147 32.8359 8.66465 29.8483ZM49.9898 31.8171C50.2856 32.1198 50.5672 32.4361 50.8346 32.7643C50.5677 32.4369 50.2869 32.1211 49.9918 31.819L49.9898 31.8171ZM53.9674 31.613C54.0999 31.7981 54.2299 31.9854 54.3551 32.1764C54.2299 31.9854 54.0999 31.7981 53.9674 31.613ZM55.8229 30.818C55.9822 31.0518 56.1349 31.2904 56.2838 31.5319C56.1349 31.2904 55.9822 31.0518 55.8229 30.818ZM29.8824 23.1608L29.8756 23.1686L29.8668 23.1745C26.6142 25.703 22.2851 26.8657 18.1021 26.5817C14.0545 26.3068 10.1308 24.676 7.44688 21.6012V23.7448C7.44688 23.9296 7.50168 24.182 7.6002 24.4762C7.69785 24.7678 7.8347 25.0899 7.98887 25.4089C8.29806 26.0486 8.67183 26.6646 8.93125 26.9938L9.26133 27.3923C12.764 31.3932 19.1708 32.2347 24.1402 30.8288C26.1333 28.311 28.4275 25.8261 31.4342 24.4606V21.5612L29.8824 23.1608ZM53.5055 30.9987C53.5891 31.1047 53.6714 31.2118 53.7525 31.32C53.6714 31.2118 53.5891 31.1047 53.5055 30.9987ZM54.2838 28.8591C54.4829 29.0805 54.6764 29.3068 54.8648 29.5378C54.6764 29.3069 54.4829 29.0805 54.2838 28.8591ZM8.81113 27.0846L8.81309 27.0866C8.76171 27.0214 8.70824 26.9443 8.65 26.86C8.70768 26.9434 8.7602 27.02 8.81113 27.0846ZM29.773 23.0544C23.5188 27.9162 13.2239 27.688 7.77012 21.737C13.2235 27.6898 23.5201 27.9188 29.775 23.0563L31.5826 21.194V21.1901L29.773 23.0544ZM7.29453 23.7428C7.29453 24.3524 7.81555 25.4843 8.30527 26.318C7.81591 25.4845 7.29648 24.3538 7.29648 23.7448V21.1921L7.29453 21.1901V23.7428ZM26.4908 8.01336C23.8628 6.64879 20.6414 6.0987 17.9957 6.30828C14.9859 6.54633 11.7823 7.85161 9.69102 9.93718C7.60732 12.0154 6.62834 14.8651 8.03574 18.2311C9.02373 20.5931 11.038 22.2491 13.5035 23.2262C15.9696 24.2034 18.878 24.4978 21.6305 24.1403C24.3839 23.7827 26.9689 22.7749 28.7945 21.1637C30.6156 19.5565 31.6849 17.3464 31.4195 14.5602C31.132 11.5432 29.1175 9.37733 26.4908 8.01336ZM32.3346 10.571C32.5066 10.8914 32.6625 11.2236 32.8004 11.568C32.9861 12.0305 33.5767 13.7628 33.5768 14.154V23.6823L33.5787 23.6813V14.1559C33.5787 13.7648 32.9881 12.0326 32.8023 11.57C32.6642 11.2247 32.5071 10.8921 32.3346 10.571ZM18.0943 8.74773C20.3744 8.56862 23.5277 8.95931 26.0191 10.1471C27.2658 10.7416 28.3557 11.5406 29.0846 12.5759C29.77 13.5496 30.1315 14.7263 30.0094 16.1227L29.9781 16.405C29.6118 19.1963 27.1314 20.8763 24.2721 21.737C21.406 22.5997 18.0964 22.6616 15.9557 22.1735C13.1931 21.5433 11.2761 20.4481 10.1266 19.1325C8.97463 17.814 8.59978 16.2797 8.91465 14.7975C9.54332 11.8394 12.8939 9.15676 18.0943 8.74773ZM29.3209 13.2516C29.783 14.1394 29.986 15.1784 29.8277 16.3835C29.119 21.7841 20.2143 22.9891 15.9869 22.0251C12.9885 21.341 11.0176 20.1093 9.94492 18.6657C11.0173 20.1102 12.989 21.3427 15.9889 22.027C20.2163 22.991 29.121 21.786 29.8297 16.3854C29.9881 15.1794 29.7838 14.1399 29.3209 13.2516ZM19.235 15.8425C16.6564 15.8802 14.1134 16.6041 12.5113 18.0134C16.3665 21.29 22.3772 20.8665 26.4566 18.1149C26.4555 18.1024 26.4537 18.092 26.4508 18.0837C26.444 18.0643 26.4311 18.0437 26.4078 18.0202C26.3834 17.9956 26.3517 17.9716 26.3102 17.9421C26.2715 17.9145 26.2201 17.88 26.1744 17.8425C24.5244 16.4873 21.882 15.8038 19.235 15.8425ZM29.7057 10.2829C26.9841 7.16513 21.8714 5.84876 17.982 6.15691C11.9026 6.63779 5.02684 11.4265 7.89512 18.2868C8.1111 18.8032 8.3782 19.2843 8.68418 19.7341C8.37879 19.2848 8.11273 18.8044 7.89707 18.2887C5.02858 11.4283 11.9045 6.63964 17.984 6.15886C21.8726 5.85083 26.9837 7.16648 29.7057 10.2829ZM26.2682 17.7243C22.8939 14.9531 15.5384 14.9753 12.2789 18.0143L12.2809 18.0153C15.5408 14.9768 22.8962 14.9551 26.2701 17.7262C26.3713 17.8094 26.494 17.8715 26.5602 17.9704C26.4943 17.8703 26.37 17.808 26.2682 17.7243ZM25.3561 12.2819C22.0667 10.4687 17.3538 10.3566 13.9723 11.988L13.9732 11.9899C12.5073 12.6974 10.3486 14.5305 10.9674 16.3327L10.9684 16.3317C10.3527 14.5304 12.51 12.699 13.9752 11.9919L13.9742 11.9899C17.3558 10.3586 22.0687 10.4705 25.358 12.2839C25.953 12.6118 26.5826 13.0607 27.0748 13.6012C26.5823 13.0598 25.9517 12.6102 25.3561 12.2819ZM25.2857 12.4157C22.0837 10.6505 17.5051 10.5191 14.1773 12.0612L14.0406 12.1266C13.3234 12.4728 12.4349 13.0964 11.8053 13.8493C11.2246 14.5437 10.8861 15.3203 11.0553 16.0837C11.2111 15.9677 11.3626 15.8513 11.5191 15.7321C11.7305 15.5712 11.9512 15.4122 12.2018 15.2692C14.1556 14.1511 16.8244 13.5826 19.4771 13.5866C22.1295 13.5907 24.7881 14.1665 26.7184 15.36C26.7766 15.3961 26.879 15.4763 26.9908 15.5651C27.1071 15.6574 27.2415 15.7661 27.3736 15.8688C27.5061 15.9718 27.6319 16.0653 27.7281 16.1276C27.7338 16.1313 27.7404 16.134 27.7457 16.1374C27.9383 15.356 27.6946 14.6414 27.2291 14.0182C26.7313 13.352 25.9867 12.8021 25.2857 12.4157ZM27.2066 13.7526C27.3197 13.8881 27.4251 14.0276 27.5172 14.1735C27.4252 14.0275 27.3196 13.8882 27.2066 13.7526ZM28.568 12.1657C28.676 12.2878 28.7781 12.4139 28.8746 12.5436C28.778 12.414 28.6761 12.2878 28.568 12.1657ZM28.0914 11.6833C28.1995 11.782 28.3038 11.8835 28.4039 11.988C28.3038 11.8835 28.1996 11.782 28.0914 11.6833ZM30.4977 11.3532C30.5195 11.3886 30.5418 11.4238 30.5631 11.4596C30.5418 11.4238 30.5195 11.3886 30.4977 11.3532ZM31.3053 9.02703C31.6625 9.46962 31.9834 9.94187 32.2633 10.445C31.9833 9.94194 31.6626 9.46955 31.3053 9.02703ZM44.4352 51.6989C44.4607 51.7518 44.4848 51.8058 44.5094 51.86C44.4848 51.8058 44.4607 51.7518 44.4352 51.6989Z" fill="#863087"/>
</svg>
