<svg width="64" height="64" viewBox="0 0 64 64" fill="none" xmlns="http://www.w3.org/2000/svg">
<path d="M32.1622 10C33.5597 10 34.8054 10.8445 35.334 12.1143L35.337 12.1221L35.4278 12.3672L35.4307 12.375H35.4297L39.3145 24.332H51.8917C53.2816 24.3335 54.5292 25.1721 55.0596 26.4453L55.0626 26.4521L55.1544 26.6982L55.1563 26.7051L55.1573 26.707V26.709C55.6146 28.1224 55.1117 29.6715 53.9102 30.5459L53.9083 30.5469L43.7354 37.9355L47.6221 49.8945L47.6241 49.9023L47.6944 50.1543L47.6963 50.1611L47.7461 50.4141C47.9482 51.6771 47.429 52.9659 46.3751 53.7334L46.3731 53.7354C45.1697 54.6091 43.5384 54.6093 42.334 53.7344L32.1622 46.3438L21.9903 53.7344C20.7862 54.6089 19.1558 54.6091 17.9522 53.7354C17.9512 53.7346 17.9503 53.7332 17.9493 53.7324V53.7334C16.7502 52.8602 16.2431 51.3117 16.7032 49.8945L20.586 37.9355L10.4161 30.5469H10.4151L10.4141 30.5459C9.21276 29.6715 8.70974 28.1224 9.16705 26.709V26.707L9.16802 26.7051C9.62916 25.2873 10.9506 24.3338 12.4327 24.332H25.0098L28.8946 12.375C29.3537 10.9619 30.6714 10.0001 32.1622 10ZM18.9805 54.041C19.3021 54.144 19.6365 54.1954 19.9708 54.1953C19.6365 54.1953 19.3021 54.1441 18.9805 54.041ZM44.4092 54.1924C44.4513 54.1917 44.4932 54.1898 44.5352 54.1875C44.4932 54.1898 44.4513 54.1917 44.4092 54.1924ZM44.1739 54.1875C44.2107 54.1895 44.2474 54.1916 44.2842 54.1924C44.2474 54.1916 44.2107 54.1895 44.1739 54.1875ZM44.6504 54.1797C44.6961 54.1755 44.7417 54.1702 44.7872 54.1641C44.7416 54.1702 44.6961 54.1755 44.6504 54.1797ZM43.9219 54.1641C43.9626 54.1695 44.0032 54.1738 44.044 54.1777C44.0032 54.1738 43.9626 54.1695 43.9219 54.1641ZM44.8858 54.1494C44.929 54.1422 44.9718 54.133 45.0147 54.124C44.9718 54.133 44.929 54.1422 44.8858 54.1494ZM43.6856 54.123C43.7275 54.1319 43.7694 54.1403 43.8116 54.1475C43.7694 54.1403 43.7275 54.1319 43.6856 54.123ZM45.1407 54.0967C45.1679 54.0899 45.1947 54.0817 45.2217 54.0742C45.1947 54.0817 45.1679 54.0899 45.1407 54.0967ZM43.4698 54.0703C43.4997 54.0788 43.5295 54.0871 43.5596 54.0947C43.5295 54.0871 43.4997 54.0788 43.4698 54.0703ZM45.377 54.0283C45.4013 54.0202 45.4251 54.0106 45.4493 54.002C45.4251 54.0106 45.4013 54.0202 45.377 54.0283ZM43.2178 53.9873C43.2533 54.0006 43.2885 54.0144 43.3243 54.0264C43.2885 54.0144 43.2533 54.0006 43.2178 53.9873ZM45.6016 53.9443C45.6438 53.9267 45.6851 53.9071 45.7266 53.8877C45.6851 53.9071 45.6438 53.9267 45.6016 53.9443ZM43.0088 53.9004C43.0395 53.9144 43.0697 53.9294 43.1006 53.9424C43.0696 53.9294 43.0395 53.9144 43.0088 53.9004ZM45.8252 53.8408C45.8536 53.8263 45.8812 53.8103 45.9092 53.7949C45.8812 53.8103 45.8536 53.8263 45.8252 53.8408ZM46.2774 53.5615C46.3349 53.519 46.3903 53.4744 46.4444 53.4287C46.3903 53.4744 46.3349 53.519 46.2774 53.5615ZM17.6817 53.2471C17.7212 53.2865 17.763 53.3237 17.8047 53.3613C17.763 53.3237 17.7212 53.2865 17.6817 53.2471ZM17.5147 53.0674C17.5453 53.103 17.5782 53.1365 17.6104 53.1709C17.5782 53.1365 17.5453 53.103 17.5147 53.0674ZM46.7305 53.1533C46.7441 53.1386 46.7582 53.1243 46.7715 53.1094C46.7582 53.1243 46.7441 53.1386 46.7305 53.1533ZM46.8497 53.0166C46.877 52.9835 46.9048 52.951 46.9307 52.917C46.9048 52.951 46.877 52.9835 46.8497 53.0166ZM17.3536 52.8633C17.3867 52.9088 17.4215 52.9532 17.4571 52.9971C17.4214 52.9532 17.3867 52.9088 17.3536 52.8633ZM46.9737 52.8564C47.0031 52.8159 47.0322 52.7752 47.0596 52.7334C47.0322 52.7752 47.0031 52.8159 46.9737 52.8564ZM17.2217 52.668C17.251 52.715 17.2818 52.7611 17.3135 52.8066C17.2818 52.7611 17.251 52.715 17.2217 52.668ZM47.1211 52.6348C47.1385 52.6061 47.1565 52.5779 47.1729 52.5488C47.1565 52.5779 47.1385 52.6061 47.1211 52.6348ZM17.1026 52.458C17.1239 52.4988 17.1459 52.5392 17.169 52.5791C17.1459 52.5392 17.1239 52.4988 17.1026 52.458ZM47.2305 52.4404C47.2482 52.4061 47.2658 52.3718 47.2823 52.3369C47.2658 52.3718 47.2482 52.4061 47.2305 52.4404ZM17.001 52.2471C17.0168 52.2833 17.0338 52.3189 17.0508 52.3545C17.0338 52.3189 17.0168 52.2833 17.001 52.2471ZM47.3233 52.2451C47.342 52.2021 47.3602 52.159 47.377 52.1152C47.3602 52.159 47.342 52.2021 47.3233 52.2451ZM16.9122 52.0176C16.9247 52.0536 16.9375 52.0894 16.9512 52.125C16.9374 52.0894 16.9247 52.0536 16.9122 52.0176ZM47.4053 52.0361C47.4207 51.9927 47.4357 51.9493 47.4493 51.9053C47.4358 51.9493 47.4207 51.9927 47.4053 52.0361ZM16.8438 51.7959C16.8522 51.827 16.8609 51.8579 16.8702 51.8887C16.8609 51.8579 16.8522 51.827 16.8438 51.7959ZM47.4795 51.8027C47.4906 51.762 47.4994 51.7208 47.5088 51.6797C47.4994 51.7208 47.4906 51.762 47.4795 51.8027ZM16.7881 51.5518C16.7946 51.586 16.8011 51.6203 16.8086 51.6543C16.8011 51.6203 16.7946 51.586 16.7881 51.5518ZM32.1622 12.7666C31.8728 12.7667 31.616 12.9539 31.5264 13.2295L27.0635 26.9639C27.0373 27.0443 26.9626 27.0985 26.878 27.0986H12.4356C12.1462 27.0991 11.8893 27.2859 11.7999 27.5605C11.7108 27.8357 11.8093 28.1384 12.043 28.3086H12.042L23.7247 36.7959C23.7931 36.8457 23.8211 36.9341 23.795 37.0146L19.335 50.749C19.2458 51.024 19.3442 51.3256 19.5782 51.4961H19.5772C19.8115 51.6663 20.13 51.6662 20.3643 51.4961L32.0469 43.0078L32.1026 42.9795C32.1607 42.9609 32.2261 42.9706 32.2774 43.0078L43.961 51.4961C44.1952 51.6662 44.5128 51.6662 44.7471 51.4961C44.9809 51.3256 45.0795 51.0238 44.9903 50.749L40.5274 37.0146C40.5013 36.9341 40.5302 36.8457 40.5987 36.7959L52.2823 28.3086C52.516 28.1384 52.6135 27.8357 52.5245 27.5605C52.4461 27.3201 52.2397 27.147 51.9952 27.1074L51.8887 27.0986H37.4463C37.3619 27.0984 37.2869 27.0442 37.2608 26.9639L32.7979 13.2295C32.7083 12.9539 32.4516 12.7666 32.1622 12.7666ZM19.1495 51.2227C19.2001 51.378 19.296 51.5169 19.4278 51.624C19.2961 51.5169 19.2002 51.3778 19.1495 51.2227ZM47.5303 51.5889C47.539 51.5458 47.5459 51.5024 47.5528 51.459C47.5459 51.5024 47.5389 51.5458 47.5303 51.5889ZM16.754 51.3311C16.7573 51.3598 16.7606 51.3884 16.7647 51.417C16.7606 51.3884 16.7573 51.3598 16.754 51.3311ZM47.5684 51.3574C47.5745 51.3088 47.5782 51.2599 47.5821 51.2109C47.5782 51.2599 47.5745 51.3088 47.5684 51.3574ZM45.2178 50.958C45.2175 51.048 45.2033 51.1369 45.1758 51.2217C45.2033 51.1369 45.2175 51.048 45.2178 50.958ZM16.7354 51.0889C16.7367 51.1192 16.7372 51.1495 16.7393 51.1797C16.7372 51.1495 16.7367 51.1192 16.7354 51.0889ZM47.5928 50.9131C47.5908 50.7572 47.5788 50.6005 47.5538 50.4443L47.5821 50.6826C47.5886 50.7595 47.5918 50.8364 47.5928 50.9131ZM44.3975 50.8682L44.3536 50.9551L44.3096 51.043L44.3086 51.042L44.3526 50.9551L44.3965 50.8672L44.3975 50.8682ZM16.7344 50.8535C16.7336 50.8796 16.7317 50.9056 16.7315 50.9316C16.7317 50.9056 16.7336 50.8796 16.7344 50.8535ZM16.753 50.5947C16.7495 50.626 16.7448 50.6572 16.7422 50.6885C16.7448 50.6572 16.7495 50.626 16.753 50.5947ZM51.8887 27.8652H51.8877V27.6699H51.8887V27.8652ZM54.0596 25.3623C54.4091 25.6773 54.6923 26.0701 54.8799 26.5205L54.7784 26.2998C54.742 26.2282 54.7034 26.158 54.6622 26.0898C54.497 25.8168 54.2934 25.5723 54.0606 25.3623H54.0596ZM9.54693 26.3008C9.52969 26.3347 9.5142 26.3696 9.4981 26.4043C9.5142 26.3696 9.52969 26.3347 9.54693 26.3008ZM9.67095 26.0781C9.64743 26.1166 9.62653 26.1567 9.60455 26.1963C9.62653 26.1567 9.64743 26.1166 9.67095 26.0781ZM9.80474 25.876C9.7783 25.9127 9.7545 25.9513 9.72955 25.9893C9.7545 25.9513 9.7783 25.9127 9.80474 25.876ZM9.96099 25.6768C9.93333 25.7094 9.90732 25.7435 9.88091 25.7773C9.90731 25.7435 9.93333 25.7094 9.96099 25.6768ZM10.1241 25.498C10.0866 25.5361 10.0503 25.5753 10.0147 25.6152C10.0503 25.5753 10.0866 25.5361 10.1241 25.498ZM10.2969 25.335C10.2621 25.3655 10.2279 25.3967 10.1944 25.4287C10.2279 25.3967 10.2621 25.3655 10.2969 25.335ZM10.4825 25.1846C10.4482 25.2104 10.4141 25.2364 10.3809 25.2637C10.4141 25.2365 10.4482 25.2104 10.4825 25.1846ZM10.6807 25.0459C10.6466 25.0679 10.6125 25.09 10.5792 25.1133C10.6125 25.09 10.6466 25.0679 10.6807 25.0459ZM10.8917 24.9209C10.8553 24.9407 10.8189 24.9603 10.7833 24.9814C10.8189 24.9603 10.8553 24.9406 10.8917 24.9209ZM11.1329 24.8027C11.0849 24.8238 11.0371 24.8448 10.9903 24.8682C11.0371 24.8448 11.0849 24.8238 11.1329 24.8027ZM11.3692 24.71C11.3143 24.7291 11.2597 24.7485 11.2061 24.7705C11.2597 24.7485 11.3143 24.7291 11.3692 24.71ZM11.6124 24.6348C11.5549 24.6499 11.4977 24.6654 11.4415 24.6836C11.4977 24.6654 11.5549 24.6499 11.6124 24.6348ZM11.879 24.5762C11.811 24.588 11.7435 24.6011 11.6768 24.6172C11.7435 24.6011 11.811 24.588 11.879 24.5762ZM12.1729 24.5381C12.0882 24.545 12.0041 24.555 11.921 24.5684C12.0041 24.555 12.0882 24.545 12.1729 24.5381ZM32.1622 13.4346L32.2315 13.5039L32.2305 13.5049L32.1612 13.4355L32.0928 13.3662L32.1622 13.4346ZM32.2999 12.582H32.3008H32.2999ZM47.5879 51.1436C47.5917 51.0793 47.5929 51.0148 47.5928 50.9502C47.5929 51.0148 47.5917 51.0793 47.5879 51.1436Z" fill="#863087"/>
</svg>
